<?xml version="1.0" encoding="utf-8"?>
<!-- Generator: Adobe Illustrator 24.0.0, SVG Export Plug-In . SVG Version: 6.00 Build 0)  -->
<svg version="1.1" id="Layer_1" xmlns="http://www.w3.org/2000/svg" xmlns:xlink="http://www.w3.org/1999/xlink" x="0px" y="0px"
	 viewBox="0 0 512 512" style="enable-background:new 0 0 512 512;" xml:space="preserve">
<style type="text/css">
	.st0{fill:#FCFCFC;}
</style>
<g id="C_-_11_x2C__Stamp_x2C__Approval_x2C__authority_x2C__legal_x2C__mark_x2C__rubber_x2C__seal">
	<g>
		<path class="st0" d="M209.5,255.4c-8,30.9-16.2,62.8-21.3,86.4h63.1V219.4c0-2.6,2.1-4.7,4.7-4.7c2.6,0,4.7,2.1,4.7,4.7v122.4
			h63.1c-5-23.6-13.2-55.5-21.2-86.4c-9-34.9-18.3-70.9-23.3-95.9c-0.4-2.1,0.6-4.2,2.6-5.1c20.5-9.9,33.2-30.2,33.2-52.8
			c0-32.4-26.5-58.7-59-58.7c-32.5,0-59,26.3-59,58.7c0,22.7,12.7,42.9,33.2,52.8c1.9,0.9,3,3,2.6,5.1
			C227.8,184.5,218.5,220.6,209.5,255.4z M256.3,68.9c0.3,0,30.2,2.4,33.4,41.8c0.2,2.6-1.7,4.8-4.3,5.1c-0.1,0-0.3,0-0.4,0
			c-2.4,0-4.5-1.9-4.7-4.3c-2.6-31.4-24.5-33.2-24.7-33.2c-2.6-0.2-4.5-2.4-4.4-5C251.5,70.7,253.7,68.7,256.3,68.9z"/>
		<path class="st0" d="M374.5,423.5h40.9v-36.2c0-19.9-16.3-36.2-36.3-36.2h-49.6h0h-147h-49.6c-20,0-36.3,16.2-36.3,36.2v36.2h40.9
			H374.5z"/>
		<path class="st0" d="M471.5,459.8H369.9v-26.9H142.1v26.9H40.5c-2.6,0-4.7,2.1-4.7,4.7c0,2.6,2.1,4.7,4.7,4.7h431.1
			c2.6,0,4.7-2.1,4.7-4.7C476.2,461.9,474.1,459.8,471.5,459.8z"/>
	</g>
</g>
<g id="Layer_1_1_">
</g>
</svg>
