<svg height="511pt" viewBox="0 -2 511.99947 511" width="511pt" xmlns="http://www.w3.org/2000/svg"><path d="m498.253906 85.625-88.882812-42.535156v226.441406l93.878906-168.351562c3.148438-5.644532.867188-12.75-4.996094-15.554688zm0 0" fill="#fff6e9"/><path d="m440.480469 57.980469-31.109375-14.890625v226.441406l31.109375-55.789062zm0 0" fill="#f9e4c7"/><path d="m397.6875 7.796875h-345.804688c-24.320312 0-44.21875 19.898437-44.21875 44.21875v403.925781c0 24.320313 19.898438 44.21875 44.21875 44.21875h345.804688c6.921875 0 12.582031-5.660156 12.582031-12.578125v-467.207031c0-6.917969-5.660156-12.578125-12.582031-12.578125zm0 0" fill="#ce7132"/><path d="m79.636719 500.160156v-492.363281h-27.753907c-24.320312 0-44.21875 19.898437-44.21875 44.21875v403.925781c0 24.320313 19.898438 44.21875 44.21875 44.21875zm0 0" fill="#bf6122"/><path d="m37.667969 455.941406v-403.925781c0-23.566406 18.683593-42.980469 41.96875-44.164063v-.054687h-27.75c-24.320313 0-44.21875 19.898437-44.21875 44.21875v403.925781c0 24.320313 19.898437 44.21875 44.21875 44.21875h27.75v-.054687c-23.285157-1.183594-41.96875-20.597657-41.96875-44.164063zm0 0" fill="#b2581b"/><path d="m271.394531 207.972656 45.316407 16.492188-66.011719 181.371094-45.316407-16.492188zm0 0" fill="#3e4b5a"/><path d="m271.394531 207.972656 22.65625 8.246094-66.007812 181.371094-22.660157-8.246094zm0 0" fill="#2e3c47"/><path d="m358.265625 110.28125-45.316406-16.492188 5.765625-15.84375c4.34375-11.933593 17.542968-18.089843 29.480468-13.746093l2.085938.761719c11.9375 4.34375 18.09375 17.542968 13.746094 29.480468zm0 0" fill="#3e4b5a"/><path d="m349.109375 96.292969c-3.796875-1.382813-5.757813-5.585938-4.375-9.386719l3.261719-8.960938c1.539062-4.226562 4.191406-7.726562 7.503906-10.292968-1.582031-1.09375-3.324219-2.003906-5.214844-2.691406l-2.085937-.761719c-11.9375-4.34375-25.140625 1.808593-29.484375 13.746093l-5.765625 15.84375 45.316406 16.492188 3.425781-9.410156zm0 0" fill="#2e3c47"/><path d="m298.738281 109.136719h-144.816406c-7.046875 0-12.816406 5.660156-12.816406 12.578125v50.84375c0 6.921875 5.769531 12.582031 12.816406 12.582031h116.632813zm0 0" fill="#bf6122"/><path d="m171.109375 172.558594v-50.84375c0-6.917969 5.765625-12.578125 12.816406-12.578125h-30.003906c-7.050781 0-12.816406 5.660156-12.816406 12.578125v50.84375c0 6.921875 5.769531 12.582031 12.816406 12.582031h30.003906c-7.050781 0-12.816406-5.660156-12.816406-12.582031zm0 0" fill="#b2581b"/><path d="m359.496094 109.964844-47.285156-17.210938c-5.058594-1.839844-10.703126.792969-12.542969 5.847656l-35.496094 97.527344c-1.839844 5.058594.792969 10.703125 5.847656 12.542969l47.285157 17.207031c5.058593 1.84375 10.699218-.789062 12.542968-5.847656l35.496094-97.527344c1.839844-5.054687-.792969-10.699218-5.847656-12.539062zm0 0" fill="#576574"/><path d="m300.023438 208.671875c-5.058594-1.839844-7.691407-7.484375-5.851563-12.542969l35.335937-97.078125-17.300781-6.292969c-5.054687-1.84375-10.699219.789063-12.539062 5.847657l-35.496094 97.523437c-1.839844 5.058594.789063 10.703125 5.847656 12.542969l47.285157 17.210937c5.058593 1.839844 10.699218-.792968 12.542968-5.847656l.160156-.449218zm0 0" fill="#3e4b5a"/><path d="m205.691406 388.480469-5.523437 15.167969c-4.34375 11.9375 1.8125 25.136718 13.75 29.480468l2.085937.757813c11.9375 4.34375 25.136719-1.808594 29.480469-13.746094l5.519531-15.167969zm0 0" fill="#576574"/><path d="m225.675781 403.648438 2.539063-6.96875-22.523438-8.199219-5.523437 15.167969c-4.34375 11.9375 1.8125 25.132812 13.75 29.480468l2.085937.757813c6.980469 2.539062 14.390625 1.484375 20.210938-2.210938-9.792969-5.363281-14.472656-17.214843-10.539063-28.027343zm0 0" fill="#3e4b5a"/><path d="m501.414062 79.074219-83.808593-40.484375v-18.011719c0-11.070313-9.011719-20.078125-20.082031-20.078125h-158.535157c-4.144531 0-7.5 3.355469-7.5 7.5s3.355469 7.5 7.5 7.5h158.535157c2.753906 0 5.078124 2.328125 5.078124 5.078125v467.207031c0 2.753906-2.324218 5.078125-5.078124 5.078125h-310.550782v-477.363281h117.015625c4.140625 0 7.5-3.355469 7.5-7.5s-3.359375-7.5-7.5-7.5c-8.074219 0-147.414062 0-152.269531 0-28.519531 0-51.71875 23.199219-51.71875 51.71875v403.925781c0 28.515625 23.199219 51.722657 51.71875 51.722657h345.804688c11.070312 0 20.082031-9.011719 20.082031-20.082032v-216.117187l92.058593-166.65625c5.191407-9.398438 1.417969-21.261719-8.25-25.9375zm-449.695312 413.789062c-20.246094 0-36.71875-16.46875-36.71875-36.71875v-403.925781c0-20.246094 16.472656-36.71875 36.71875-36.71875h20.25v477.363281zm444.8125-395.105469-78.925781 142.886719v-185.398437l77.28125 37.335937c1.929687.933594 2.683593 3.296875 1.644531 5.175781zm0 0"/><path d="m352.679688 58.113281-2.085938-.757812c-15.804688-5.753907-33.339844 2.425781-39.09375 18.230469l-3.386719 9.300781c-6.835937.242187-13.179687 4.542969-15.660156 11.355469l-2.035156 5.597656h-136.898438c-11.070312 0-20.078125 9.007812-20.078125 20.078125v50.847656c0 11.070313 9.007813 20.078125 20.078125 20.078125h103.773438c-2.9375 8.074219-.695313 15.128906 4.363281 19.6875-4.019531 11.050781-64.851562 178.175781-68.699219 188.753906-5.105469 14.023438.730469 28.957032 12.453125 36.277344l-1.785156 4.914062c-1.417969 3.894532.589844 8.195313 4.480469 9.613282 3.90625 1.417968 8.199219-.597656 9.613281-4.480469l1.789062-4.917969c14.050782 1.953125 27.890626-6.128906 32.859376-19.78125 3.488281-9.585937 27.386718-75.242187 30.578124-84.007812 1.414063-3.894532-.59375-8.195313-4.484374-9.613282-3.894532-1.414062-8.195313.589844-9.613282 4.480469l-22.492187 61.796875c-20.304688-7.390625-14.296875-5.207031-31.21875-11.363281l60.1875-165.355469c11.296875 4.109375 19.921875 7.25 31.21875 11.363282l-25.710938 70.636718c-1.417969 3.894532.589844 8.195313 4.480469 9.613282 3.894531 1.414062 8.199219-.589844 9.613281-4.480469l26.144531-71.828125c6.832032-.238282 13.179688-4.539063 15.65625-11.351563l32.335938-88.839843c4.441406 4.59375 6.171875 11.476562 3.84375 17.871093l-30.386719 83.488281c-1.417969 3.894532.589844 8.199219 4.480469 9.613282 3.90625 1.417968 8.199219-.597656 9.613281-4.480469l30.386719-83.488281c5.371094-14.757813-.757812-30.9375-13.777344-38.695313-.296875-4.558593-2.363281-8.765625-5.695312-11.765625l3.382812-9.292968c5.765625-15.84375-2.382812-33.328126-18.230468-39.097657zm-27.082032 22.605469c2.921875-8.035156 11.835938-12.191406 19.871094-9.265625l2.082031.757813c8.054688 2.929687 12.195313 11.816406 9.265625 19.867187l-2.953125 8.117187-31.222656-11.359374zm-62.84375 97.125h-109.234375c-2.75 0-5.078125-2.324219-5.078125-5.078125v-50.847656c0-2.75 2.328125-5.078125 5.078125-5.078125h131.4375c-2.511719 6.902344-19.714843 54.167968-22.203125 61.003906zm-55.703125 228.574219 2.957031-8.117188c20.304688 7.390625 14.296876 5.203125 31.21875 11.359375l-2.957031 8.121094c-6.917969 19.011719-38.402343 8.382812-31.21875-11.363281zm115.582031-188.746094c-.421874 1.15625-1.757812 1.792969-2.929687 1.363281-1.585937-.578125-46.261719-16.835937-47.285156-17.210937-1.160157-.421875-1.789063-1.757813-1.363281-2.925781 3.863281-10.609376 31.65625-86.980469 35.496093-97.527344.421875-1.160156 1.761719-1.789063 2.929688-1.363282 10.597656 3.855469 36.707031 13.359376 47.285156 17.210938 1.171875.425781 1.785156 1.769531 1.363281 2.925781zm0 0"/></svg>