<svg height="512" viewBox="0 0 58 51" width="512" xmlns="http://www.w3.org/2000/svg"><g id="Page-1" fill="none" fill-rule="evenodd"><g id="026---Tree-Branch-UI" fill-rule="nonzero"><path id="Shape" d="m56 4v37h-54v-37c0-2.209139 1.790861-4 4-4h46c2.209139 0 4 1.790861 4 4z" fill="#2fa8cc"/><path id="Shape" d="m43 19h-13v-3c0-.5522847-.4477153-1-1-1s-1 .4477153-1 1v3h-13c-1.6568542 0-3 1.3431458-3 3v3c0 .5522847.4477153 1 1 1s1-.4477153 1-1v-3c0-.5522847.4477153-1 1-1h13v4c0 .5522847.4477153 1 1 1s1-.4477153 1-1v-4h13c.5522847 0 1 .4477153 1 1v3c0 .5522847.4477153 1 1 1s1-.4477153 1-1v-3c0-1.6568542-1.3431458-3-3-3z" fill="#fff"/><path id="Shape" d="m52.96.12c-11.4.73-50.96 5.79-50.96 40.88v-37c0-2.209139 1.790861-4 4-4h46c.3237886-.00078293.6463669.03953936.96.12z" fill="#67b9cc"/><path id="Shape" d="m58 42v3c0 3.3137085-2.6862915 6-6 6h-46c-3.3137085 0-6-2.6862915-6-6v-3c0-.5522847.44771525-1 1-1h56c.5522847 0 1 .4477153 1 1z" fill="#547580"/><path id="Shape" d="m19 41h20v2c0 1.6568542-1.3431458 3-3 3h-14c-1.6568542 0-3-1.3431458-3-3z" fill="#3f5c6c"/><path id="Shape" d="m14 46h-3c-.5522847 0-1-.4477153-1-1s.4477153-1 1-1h3c.5522847 0 1 .4477153 1 1s-.4477153 1-1 1z" fill="#3f5c6c"/><circle id="Oval" cx="5" cy="45" fill="#f0c419" r="1"/><circle id="Oval" cx="8" cy="45" fill="#4fba6f" r="1"/><rect id="Rectangle-path" fill="#f29c1f" height="10" rx="2" width="20" x="19" y="6"/><rect id="Rectangle-path" fill="#955ba5" height="10" rx="2" width="12" x="7" y="25"/><rect id="Rectangle-path" fill="#955ba5" height="10" rx="2" width="12" x="23" y="25"/><rect id="Rectangle-path" fill="#955ba5" height="10" rx="2" width="12" x="39" y="25"/><g fill="#fff"><path id="Shape" d="m25 12h-2c-.5522847 0-1-.4477153-1-1s.4477153-1 1-1h2c.5522847 0 1 .4477153 1 1s-.4477153 1-1 1z"/><path id="Shape" d="m35 12h-2c-.5522847 0-1-.4477153-1-1s.4477153-1 1-1h2c.5522847 0 1 .4477153 1 1s-.4477153 1-1 1z"/><path id="Shape" d="m30 12h-2c-.5522847 0-1-.4477153-1-1s.4477153-1 1-1h2c.5522847 0 1 .4477153 1 1s-.4477153 1-1 1z"/><circle id="Oval" cx="11" cy="30" r="1"/><circle id="Oval" cx="15" cy="30" r="1"/><circle id="Oval" cx="27" cy="30" r="1"/><circle id="Oval" cx="31" cy="30" r="1"/><circle id="Oval" cx="43" cy="30" r="1"/><circle id="Oval" cx="47" cy="30" r="1"/></g></g></g></svg>