<?xml version="1.0" encoding="utf-8"?>
<!-- Generator: Adobe Illustrator 24.0.0, SVG Export Plug-In . SVG Version: 6.00 Build 0)  -->
<svg version="1.1"
	 id="svg3711" inkscape:version="0.48.2 r9819" sodipodi:docname="Coat_of_arms_of_Punjab.svg" xmlns:cc="http://creativecommons.org/ns#" xmlns:dc="http://purl.org/dc/elements/1.1/" xmlns:inkscape="http://www.inkscape.org/namespaces/inkscape" xmlns:rdf="http://www.w3.org/1999/02/22-rdf-syntax-ns#" xmlns:sodipodi="http://sodipodi.sourceforge.net/DTD/sodipodi-0.dtd" xmlns:svg="http://www.w3.org/2000/svg"
	 xmlns="http://www.w3.org/2000/svg" xmlns:xlink="http://www.w3.org/1999/xlink" x="0px" y="0px" viewBox="0 0 1355 404"
	 style="enable-background:new 0 0 1355 404;" xml:space="preserve">
<style type="text/css">
	.st0{fill:#F41919;}
	.st1{fill:#000063;}
	.st2{fill:#FFFFFF;}
	.st3{fill:#004614;}
	.st4{fill:#BCBCBC;}
	.st5{fill:#BCBCBC;stroke:#BCBCBC;}
</style>
<sodipodi:namedview  bordercolor="#666666" borderopacity="1" fit-margin-bottom="0" fit-margin-left="0" fit-margin-right="0" fit-margin-top="0" gridtolerance="10" guidetolerance="10" id="namedview179" inkscape:current-layer="svg3711" inkscape:cx="240.07424" inkscape:cy="189.45731" inkscape:guide-bbox="true" inkscape:pageopacity="0" inkscape:pageshadow="2" inkscape:window-height="1005" inkscape:window-maximized="1" inkscape:window-width="1280" inkscape:window-x="-4" inkscape:window-y="-4" inkscape:zoom="2.1243217" objecttolerance="10" pagecolor="#ffffff" showgrid="false" showguides="true">
	</sodipodi:namedview>
<g id="g4403">
	<path class="st0" d="M35.7,203.2c0-103,77.6-186.5,173.2-186.5c95.7,0,173.2,83.5,173.2,186.5"/>
	<path class="st1" d="M382.2,202.7c0,103-77.6,186.5-173.2,186.5S35.7,305.7,35.7,202.7"/>
	<g id="path3958_1_">
		<path inkscape:connector-curvature="0" class="st2" d="M216.3,56.5c14.3,6.5,24.3,21.4,24.3,38.8c0,23.4-18.2,42.4-40.5,42.4
			c-11.2,0-21.3-4.8-28.6-12.4c7.5,15.1,22.6,25.4,40,25.4c24.9,0,45.1-21.1,45.1-47.2C256.6,79,238.9,59,216.3,56.5z"/>
	</g>
	<g id="path3960_1_">
		<path inkscape:connector-curvature="0" class="st2" d="M195.3,109.2l-8.6-11.4l-13.6,3.3l7.7-12.1l-7.2-12.5l13.4,4l9.1-11
			l0.5,14.5l12.8,5.7l-13.1,5L195.3,109.2z"/>
	</g>
	<g id="path4219_1_">
		<path inkscape:connector-curvature="0" class="st2" d="M101.7,252.7"/>
		<path class="st3" d="M101.7,252.7"/>
	</g>
	<g id="g4798_1_" transform="matrix(1.7291091,0,0,1.7291091,-0.45391,3.350149)">
		<g id="g4503_1_">
			<g id="path4181_1_">
				<path inkscape:connector-curvature="0" class="st2" d="M61.7,91.3l-1,13"/>
				<path class="st4" d="M60.7,104.6c-0.1,0-0.2-0.2-0.2-0.3l0,0l1-13c0-0.2,0.1-0.3,0.2-0.2l0,0c0.1,0,0.2,0.2,0.2,0.3l0,0l-1,13
					C60.9,104.5,60.8,104.6,60.7,104.6L60.7,104.6C60.7,104.6,60.7,104.6,60.7,104.6L60.7,104.6z"/>
			</g>
			<g id="path4183_1_">
				<path inkscape:connector-curvature="0" class="st2" d="M63.8,103.7l-1.3,12"/>
				<path class="st4" d="M62.5,116c-0.1,0-0.2-0.2-0.2-0.3l0,0l1.3-12c0-0.2,0.1-0.3,0.2-0.2l0,0c0.1,0,0.2,0.2,0.2,0.3l0,0l-1.3,12
					C62.7,115.9,62.6,116,62.5,116L62.5,116C62.5,116,62.5,116,62.5,116L62.5,116z"/>
			</g>
			<g id="path4191_1_">
				<path inkscape:connector-curvature="0" class="st2" d="M52.8,94l-0.5,12.7"/>
				<path class="st4" d="M52.3,107.1c-0.1,0-0.2-0.1-0.2-0.3l0,0L52.6,94c0-0.2,0.1-0.3,0.2-0.3l0,0c0.1,0,0.2,0.1,0.2,0.3l0,0
					l-0.5,12.7C52.5,106.9,52.4,107.1,52.3,107.1L52.3,107.1C52.3,107.1,52.3,107.1,52.3,107.1L52.3,107.1z"/>
			</g>
			<g id="path4189_1_">
				<path inkscape:connector-curvature="0" class="st2" d="M48.4,100.5l0.6,13.4"/>
				<path class="st4" d="M48.8,113.9l-0.6-13.4c0-0.2,0.1-0.3,0.2-0.3l0,0c0.1,0,0.2,0.1,0.2,0.3l0,0l0.6,13.4
					c0,0.2-0.1,0.3-0.2,0.3l0,0c0,0,0,0,0,0l0,0C48.9,114.2,48.8,114,48.8,113.9L48.8,113.9z"/>
			</g>
			<g id="path4179_1_">
				<path inkscape:connector-curvature="0" class="st2" d="M56.8,102.9l1.6-20.1"/>
				<path class="st4" d="M56.7,103.2c-0.1,0-0.2-0.2-0.2-0.3l0,0l1.6-20.1c0-0.2,0.1-0.3,0.2-0.2l0,0c0.1,0,0.2,0.2,0.2,0.3l0,0
					L57,102.9C56.9,103.1,56.9,103.2,56.7,103.2L56.7,103.2C56.8,103.2,56.7,103.2,56.7,103.2L56.7,103.2z"/>
			</g>
			<g id="path4185_1_">
				<path inkscape:connector-curvature="0" class="st2" d="M64.7,111.1L63,123.9"/>
				<path class="st4" d="M63,124.2c-0.1,0-0.2-0.2-0.1-0.3l0,0l1.7-12.8c0-0.2,0.1-0.3,0.2-0.2l0,0c0.1,0,0.2,0.2,0.1,0.3l0,0
					L63.2,124C63.2,124.1,63.1,124.2,63,124.2L63,124.2C63,124.2,63,124.2,63,124.2L63,124.2z"/>
			</g>
			<g id="path4187_1_">
				<path inkscape:connector-curvature="0" class="st2" d="M48.6,125.1l-2-8"/>
				<path class="st4" d="M48.4,125.2l-2-8c0-0.1,0-0.3,0.1-0.4l0,0c0.1-0.1,0.2,0,0.2,0.2l0,0l2,8c0,0.1,0,0.3-0.1,0.4l0,0
					c0,0,0,0-0.1,0l0,0C48.5,125.4,48.4,125.3,48.4,125.2L48.4,125.2z"/>
			</g>
		</g>
		<g id="g4461_1_">
			<g id="path4177_1_">
				<path inkscape:connector-curvature="0" class="st2" d="M60.9,103.1c1.7,7.8-1.8,16.7-3.7,19.3C57.3,116.4,57.3,105.3,60.9,103.1
					z"/>
				<path class="st4" d="M57,122.4c0-3,0.1-7.3,0.5-11.1l0,0c0.5-3.8,1.4-7.3,3.3-8.5l0,0l0.2-0.1L61,103c0.3,1.5,0.4,3,0.4,4.5l0,0
					c0,6.6-2.6,12.9-4.2,15.1l0,0l-0.3,0.4L57,122.4L57,122.4z M57.9,111.4c-0.4,3.5-0.5,7.4-0.5,10.4l0,0c1.5-2.4,3.7-8.3,3.7-14.2
					l0,0c0-1.3-0.1-2.7-0.4-4l0,0C59.2,104.6,58.3,107.8,57.9,111.4L57.9,111.4z"/>
			</g>
			<g id="path4169_1_">
				<path inkscape:connector-curvature="0" class="st2" d="M62.6,114.2c-5.4,2.1-4.3,8.6-5.3,16C59.9,126.8,63.3,125.1,62.6,114.2z"
					/>
				<path class="st4" d="M57.1,130.2c0.5-3.7,0.5-7.2,1-10l0,0c0.5-2.9,1.7-5.2,4.4-6.2l0,0l0.2-0.1l0,0.3c0.1,1,0.1,2,0.1,2.9l0,0
					c0,8.5-3.1,10.4-5.5,13.4l0,0L57,131L57.1,130.2L57.1,130.2z M58.5,120.3c-0.5,2.6-0.5,5.8-0.9,9.2l0,0c2.3-2.9,4.9-4.7,5-12.5
					l0,0c0-0.8,0-1.6-0.1-2.5l0,0C59.9,115.6,59,117.6,58.5,120.3L58.5,120.3z M62.4,114.2l0.2,0L62.4,114.2L62.4,114.2z"/>
			</g>
			<g id="path4173_1_">
				<path inkscape:connector-curvature="0" class="st2" d="M52.5,104.9c-3.2,5.4,0,12.7,1.6,17.6C55.9,116.3,56.1,108.2,52.5,104.9z
					"/>
				<path class="st4" d="M53.9,122.6c-1.1-3.3-2.9-7.9-2.9-12.2l0,0c0-2,0.4-3.9,1.4-5.6l0,0l0.1-0.2l0.1,0.1c2.1,2,2.9,5.5,2.9,9.2
					l0,0c0,2.9-0.5,6-1.3,8.7l0,0l-0.2,0.6L53.9,122.6L53.9,122.6z M51.3,110.3c0,3.9,1.6,8.1,2.7,11.4l0,0c0.7-2.5,1.1-5.3,1.1-7.9
					l0,0c0-3.6-0.8-6.8-2.6-8.6l0,0C51.7,106.8,51.3,108.5,51.3,110.3L51.3,110.3z M52.4,105.1l0.1-0.2L52.4,105.1L52.4,105.1z"/>
			</g>
			<g id="path4171_1_">
				<path inkscape:connector-curvature="0" class="st2" d="M49,112.8c0.1,8.6,1.5,15.7,6,19.3C54.5,122.1,53.1,114.4,49,112.8z"/>
				<path class="st4" d="M54.8,132.4c-4.5-3.7-6-10.9-6.1-19.6l0,0l0-0.4l0.2,0.1c4.3,1.7,5.7,9.5,6.1,19.6l0,0l0,0.5L54.8,132.4
					L54.8,132.4z M54.7,131.6c-0.4-9.6-1.8-16.8-5.5-18.5l0,0C49.3,121.4,50.6,128.1,54.7,131.6L54.7,131.6z M48.9,113.1l0-0.3
					L48.9,113.1L48.9,113.1z"/>
			</g>
			<g id="path4175_1_">
				<path inkscape:connector-curvature="0" class="st2" d="M56.9,101.1c-3.6,5.8-2.2,15-0.1,19.6C57.9,116,59.7,106,56.9,101.1z"/>
				<path class="st4" d="M56.6,120.9c-1.2-2.6-2.2-6.6-2.2-10.6l0,0c0-3.3,0.6-6.6,2.3-9.3l0,0l0.1-0.2l0.1,0.2
					c1.2,2,1.6,4.8,1.6,7.7l0,0c0,4.5-1,9.3-1.6,12.2l0,0l-0.1,0.5L56.6,120.9L56.6,120.9z M54.8,110.2c0,3.7,0.8,7.4,1.9,9.8l0,0
					c0.6-2.9,1.5-7.3,1.5-11.4l0,0c0-2.7-0.4-5.2-1.3-7.1l0,0C55.4,104,54.8,107.1,54.8,110.2L54.8,110.2z M56.7,101.3l0.1-0.2
					L56.7,101.3L56.7,101.3z"/>
			</g>
			<g id="path4167_1_">
				<path inkscape:connector-curvature="0" class="st2" d="M55.8,113.1c2.7,6.4,3.2,15.4,0.2,21.8C52.7,129.1,53.6,119.5,55.8,113.1
					z"/>
				<path class="st4" d="M55.8,135.1c-1.5-2.8-2.2-6.4-2.2-10.1l0,0c0-4.2,0.8-8.6,2-12l0,0l0.2-0.4l0.2,0.4
					c1.4,3.4,2.2,7.6,2.2,11.7l0,0c0,3.7-0.7,7.3-2.1,10.4l0,0l-0.1,0.3L55.8,135.1L55.8,135.1z M54,125c0,3.5,0.6,6.8,1.9,9.5l0,0
					c1.3-2.9,1.9-6.3,1.9-9.8l0,0c0-3.8-0.7-7.7-2-11l0,0C54.7,117,54,121.1,54,125L54,125z"/>
			</g>
			<g id="path4165_1_">
				<path inkscape:connector-curvature="0" class="st2" d="M55.7,138.7c-0.7-5.8,2.2-12.4,7.4-15.9
					C63.2,134.6,59.8,140.2,55.7,138.7z"/>
				<path class="st4" d="M56.9,139.2c-0.4,0-0.9-0.1-1.3-0.2l0,0l0-0.3l0.2,0l-0.2,0l0,0.3l-0.1,0l0-0.2c-0.1-0.6-0.1-1.2-0.1-1.8
					l0,0c0-5.5,2.8-11.3,7.6-14.5l0,0l0.3-0.2l0,0.4c0,0.1,0,0.3,0,0.4l0,0c0,5.2-0.7,9.2-1.8,11.9l0,0
					C60.4,137.8,58.8,139.2,56.9,139.2L56.9,139.2C57,139.2,56.9,139.2,56.9,139.2L56.9,139.2z M56.9,138.7c1.7,0,3.2-1.3,4.2-3.9
					l0,0c1.1-2.6,1.8-6.5,1.8-11.5l0,0c-4.5,3.2-7.2,8.7-7.2,13.8l0,0c0,0.5,0,1,0.1,1.5l0,0C56.2,138.6,56.6,138.7,56.9,138.7
					L56.9,138.7z"/>
			</g>
			<g id="path4163_1_">
				<path inkscape:connector-curvature="0" class="st2" d="M57.1,139c-5.9-0.5-7.8-6.8-8.7-14.7C52.6,126.2,55.4,131.1,57.1,139z"/>
				<path class="st4" d="M57.1,139.2c-6-0.5-7.9-7-8.9-15l0,0c0-0.1,0-0.2,0.1-0.3l0,0c0-0.1,0.1-0.1,0.2-0.1l0,0
					c4.3,2,7.1,7,8.8,14.9l0,0l-0.2,0.1l0-0.3l0,0.3l0.2-0.1c0,0.1,0,0.2,0,0.3l0,0C57.2,139.2,57.2,139.2,57.1,139.2L57.1,139.2
					C57.1,139.2,57.1,139.2,57.1,139.2L57.1,139.2z M56.8,138.7c-1.7-7.4-4.3-12.1-8.2-14l0,0C49.6,132.2,51.4,138,56.8,138.7
					L56.8,138.7z"/>
			</g>
		</g>
	</g>
	<g id="g4817_1_" transform="matrix(1.7291091,0,0,1.7291091,-0.45391,3.350149)">
		<g id="g4538_1_">
			<g id="path4199_1_">
				<path inkscape:connector-curvature="0" class="st2" d="M36.7,139.6l6.1,12.3"/>
				<path class="st4" d="M42.7,152l-6.1-12.3c-0.1-0.1,0-0.3,0-0.4l0,0c0.1-0.1,0.2-0.1,0.3,0.1l0,0l6.1,12.3c0.1,0.1,0,0.3,0,0.4
					l0,0c0,0-0.1,0.1-0.1,0.1l0,0C42.8,152.1,42.7,152.1,42.7,152L42.7,152z"/>
			</g>
			<g id="g4512_1_">
				<g id="path4197_1_">
					<path inkscape:connector-curvature="0" class="st2" d="M38.3,130.4l3.9,11.6"/>
					<path class="st4" d="M42,142.1l-3.9-11.6c0-0.1,0-0.3,0.1-0.4l0,0c0.1-0.1,0.2,0,0.3,0.1l0,0l3.9,11.6c0,0.1,0,0.3-0.1,0.4l0,0
						c0,0-0.1,0-0.1,0l0,0C42.1,142.2,42,142.2,42,142.1L42,142.1z"/>
				</g>
				<g id="path4195_1_">
					<path inkscape:connector-curvature="0" class="st2" d="M45.1,134.5l-7.5-17.9"/>
					<path class="st4" d="M44.9,134.7l-7.5-17.9c-0.1-0.1,0-0.3,0.1-0.4l0,0c0.1-0.1,0.2,0,0.3,0.1l0,0l7.5,17.9
						c0.1,0.1,0,0.3-0.1,0.4l0,0c0,0-0.1,0-0.1,0l0,0C45,134.8,44.9,134.8,44.9,134.7L44.9,134.7z"/>
				</g>
				<g id="path4201_1_">
					<path inkscape:connector-curvature="0" class="st2" d="M43.4,157.9l6.3,4"/>
					<path class="st4" d="M49.6,162.1l-6.3-4c-0.1-0.1-0.1-0.2-0.1-0.4l0,0c0-0.1,0.2-0.2,0.2-0.2l0,0l6.3,4
						c0.1,0.1,0.1,0.2,0.1,0.4l0,0C49.8,162.1,49.7,162.2,49.6,162.1L49.6,162.1C49.6,162.2,49.6,162.2,49.6,162.1L49.6,162.1z"/>
				</g>
				<g id="path4193_1_">
					<path inkscape:connector-curvature="0" class="st2" d="M48.3,129.7l-3.9-9.9"/>
					<path class="st4" d="M48.2,129.8l-3.9-9.9c-0.1-0.1,0-0.3,0.1-0.4l0,0c0.1-0.1,0.2,0,0.3,0.1l0,0l3.9,9.9
						c0.1,0.1,0,0.3-0.1,0.4l0,0c0,0-0.1,0-0.1,0l0,0C48.3,129.9,48.2,129.9,48.2,129.8L48.2,129.8z"/>
				</g>
				<g id="path4221_1_">
					<path inkscape:connector-curvature="0" class="st2" d="M54.2,137.3l-1.9-7.5"/>
					<path class="st4" d="M54,137.4l-1.9-7.5c0-0.1,0-0.3,0.1-0.4l0,0c0.1-0.1,0.2,0,0.2,0.2l0,0l1.9,7.5c0,0.1,0,0.3-0.1,0.4l0,0
						c0,0,0,0-0.1,0l0,0C54.1,137.5,54,137.5,54,137.4L54,137.4z"/>
				</g>
				<g id="path4255_1_">
					<path inkscape:connector-curvature="0" class="st2" d="M59,144.4l-2.9-8.2"/>
					<path class="st4" d="M58.9,144.5l-2.9-8.2c0-0.1,0-0.3,0.1-0.4l0,0c0.1-0.1,0.2,0,0.3,0.1l0,0l2.9,8.2c0.1,0.1,0,0.3-0.1,0.4
						l0,0c0,0-0.1,0-0.1,0l0,0C59,144.7,58.9,144.6,58.9,144.5L58.9,144.5z"/>
				</g>
			</g>
		</g>
		<g id="g4567_1_">
			<g id="path4157-1_1_">
				<path inkscape:connector-curvature="0" class="st2" d="M41.6,140.4c3.5-1.8,7.1-0.3,7.8,11.6C44.7,150.2,41.6,146.3,41.6,140.4z
					"/>
				<path class="st4" d="M49.4,152.2c-4.8-1.8-8-5.8-8-11.7l0,0c0,0,0-0.1,0-0.1l0,0l0-0.2l0.1-0.1c0.8-0.4,1.6-0.7,2.4-0.7l0,0
					c2.8,0,5.2,3.2,5.7,12.5l0,0l0,0.4L49.4,152.2L49.4,152.2z M49.2,151.6c-0.6-8.9-2.8-11.5-5.3-11.5l0,0c-0.7,0-1.4,0.2-2.1,0.6
					l0,0C41.8,146.1,44.7,149.8,49.2,151.6L49.2,151.6z"/>
			</g>
			<g id="path4161-0_1_">
				<path inkscape:connector-curvature="0" class="st2" d="M48.2,129.2c5,3.9,6.7,13.4,5.5,19.5C49.4,146.3,46.6,137.2,48.2,129.2z"
					/>
				<path class="st4" d="M53.7,149c-3.6-2-6.1-8.5-6.1-15.1l0,0c0-1.6,0.1-3.2,0.5-4.7l0,0l0.1-0.3l0.2,0.2c4.1,3.2,6,10,6,15.8l0,0
					c0,1.5-0.1,2.8-0.3,4.1l0,0l-0.1,0.3L53.7,149L53.7,149z M47.9,133.9c0,6.3,2.4,12.5,5.7,14.5l0,0c0.2-1.1,0.3-2.4,0.3-3.7l0,0
					c0-5.5-1.8-12-5.6-15.1l0,0C48,131,47.9,132.5,47.9,133.9L47.9,133.9z"/>
			</g>
			<g id="path4153-5_1_">
				<path inkscape:connector-curvature="0" class="st2" d="M54.1,136.8c-2.8,7.6-0.7,14.5,3,21.2C57.7,150.5,59,142.8,54.1,136.8z"
					/>
				<path class="st4" d="M57,158.2c-2.5-4.6-4.3-9.3-4.3-14.3l0,0c0-2.4,0.4-4.8,1.3-7.2l0,0l0.1-0.3l0.2,0.2
					c2.9,3.6,3.7,7.9,3.7,12.3l0,0c0,3-0.4,6.2-0.6,9.2l0,0l-0.1,0.7L57,158.2L57,158.2z M53,143.9c0,4.6,1.6,9.1,3.9,13.4l0,0
					c0.2-2.9,0.6-5.7,0.6-8.5l0,0c0-4.2-0.7-8.1-3.3-11.6l0,0C53.4,139.5,53,141.7,53,143.9L53,143.9z M54,137l0.1-0.2L54,137
					L54,137z"/>
			</g>
			<g id="path4159-8_1_">
				<path inkscape:connector-curvature="0" class="st2" d="M43.9,131.9c-1.1,5.1,2.6,16.6,8.1,15.4C51.1,140.2,48,133.4,43.9,131.9z
					"/>
				<path class="st4" d="M43.5,134c0-0.8,0.1-1.5,0.2-2.1l0,0l0.1-0.3l0.2,0.1c4.2,1.5,7.3,8.4,8.3,15.7l0,0l0,0.3l-0.2,0
					c-0.3,0.1-0.5,0.1-0.8,0.1l0,0C46.6,147.7,43.5,139.4,43.5,134L43.5,134z M43.9,134c0,2.6,0.8,5.9,2.1,8.6l0,0
					c1.3,2.7,3.1,4.6,5.3,4.6l0,0c0.2,0,0.4,0,0.5,0l0,0c-1-6.9-4-13.4-7.8-14.9l0,0C43.9,132.8,43.9,133.3,43.9,134L43.9,134z
					 M43.8,132.2l0-0.3L43.8,132.2L43.8,132.2z"/>
			</g>
			<g id="path4155-9_1_">
				<path inkscape:connector-curvature="0" class="st2" d="M42.1,150.6c2.6,8.3,7.8,9.3,13,10.1C51.1,154.6,47.3,146.5,42.1,150.6z"
					/>
				<path class="st4" d="M55.1,161c-5.2-0.9-10.5-1.9-13.1-10.3l0,0l-0.1-0.2l0.2-0.1c1-0.8,2-1.1,2.9-1.1l0,0
					c4,0,7.1,6.4,10.3,11.3l0,0l0.4,0.6L55.1,161L55.1,161z M54.6,160.3c-3.1-4.9-6.1-10.6-9.7-10.6l0,0c-0.8,0-1.7,0.3-2.5,1l0,0
					C44.8,158.3,49.6,159.5,54.6,160.3L54.6,160.3z"/>
			</g>
			<g id="path4151-7_1_">
				<path inkscape:connector-curvature="0" class="st2" d="M48.3,144.1c5.2,2.3,8.9,7,9.5,17.5C52.2,159.1,48.8,153.7,48.3,144.1z"
					/>
				<path class="st4" d="M57.8,161.8c-5.7-2.4-9.2-8-9.6-17.7l0,0l0.2,0l-0.2,0l0-0.4l0.3,0.1c5.2,2.3,9,7.2,9.6,17.7l0,0l0,0.4
					L57.8,161.8L57.8,161.8z M57.6,161.1c-0.6-9.8-4.2-14.4-9.1-16.7l0,0C49,153.6,52.3,158.7,57.6,161.1L57.6,161.1z"/>
			</g>
			<g id="path4147_1_">
				<path inkscape:connector-curvature="0" class="st2" d="M58.9,143.8c-2.8,9.5-2.3,17.2,2.9,22.3
					C64.1,155.8,61.9,149.5,58.9,143.8z"/>
				<path class="st4" d="M61.7,166.4c-3.2-3.1-4.6-7.3-4.6-12.3l0,0c0-3.2,0.6-6.6,1.7-10.4l0,0l0.1-0.4l0.2,0.4
					c2.2,4,3.9,8.4,3.9,14.4l0,0c0,2.5-0.3,5.2-1,8.2l0,0l-0.1,0.3L61.7,166.4L61.7,166.4z M57.4,154.1c0,4.7,1.3,8.5,4.3,11.6l0,0
					c0.6-2.8,0.9-5.4,0.9-7.7l0,0c0-5.6-1.6-9.8-3.6-13.6l0,0C58,147.9,57.4,151.2,57.4,154.1L57.4,154.1z M58.8,144l0.1-0.2
					L58.8,144L58.8,144z"/>
			</g>
			<g id="path4149-6_1_">
				<path inkscape:connector-curvature="0" class="st2" d="M48.5,161.2c5.3-3.6,10.3-3.2,14.6,3.9C57.1,168.7,52.2,167.5,48.5,161.2
					z"/>
				<path class="st4" d="M48.4,161.4l0.1-0.2l0.1,0.3l-0.1-0.3L48.4,161.4l-0.2-0.3l0.2-0.2c2.1-1.4,4.2-2.3,6.2-2.3l0,0
					c3.1,0,6,1.9,8.6,6.2l0,0l0.2,0.3l-0.3,0.2c-2.3,1.4-4.4,2.1-6.3,2.1l0,0c0,0,0,0,0,0l0,0C53.5,167.4,50.7,165.4,48.4,161.4
					L48.4,161.4z M56.8,166.8c1.8,0,3.8-0.6,5.9-1.9l0,0c-2.5-4-5.2-5.7-8.1-5.7l0,0c-1.9,0-3.8,0.7-5.8,2l0,0
					C51.1,165,53.7,166.8,56.8,166.8L56.8,166.8z"/>
			</g>
		</g>
	</g>
	<g id="path4003_1_">
		<path inkscape:connector-curvature="0" class="st2" d="M89.8,301.6c59.9-37.1,51.9,37.9,88.6,25.9
			C154.6,324.6,141.7,246.8,89.8,301.6z"/>
		<path class="st4" d="M146.1,310.6c-6.9-9.4-14.2-18.6-27.5-18.6l0,0c-7.4,0-16.6,2.9-28.6,10.3l0,0l-0.2-0.8l0.2,0.8l-0.5-1.5
			c13.5-14.3,24.5-19.6,33.7-19.6l0,0c13.2,0,22.7,11,31.1,22.1l0,0c8.4,11.1,15.6,22.3,24.1,23.3l0,0l0.1,1.7
			c-2.8,0.9-5.4,1.3-7.7,1.3l0,0C159.4,329.7,153,320,146.1,310.6L146.1,310.6z M146.8,309.4c6.9,9.4,13.1,18.6,23.9,18.6l0,0
			c1.4,0,2.8-0.1,4.4-0.5l0,0c-7.7-3.1-14.2-13.2-21.6-22.9l0,0c-8.3-11.1-17.6-21.7-30.3-21.7l0,0c-8,0-17.3,4.1-28.8,15l0,0
			c9.8-5.4,17.7-7.6,24.2-7.6l0,0c0,0,0,0,0,0l0,0C132.2,290.4,139.9,300,146.8,309.4L146.8,309.4z"/>
	</g>
	<g id="path4005_1_">
		<path inkscape:connector-curvature="0" class="st2" d="M238.2,363.2c1.7,2.4,2.5,1.6,3.9,0c1.3-1.5,2.4-3.8-0.1-5.7
			c-9.9-7.6-21.2-29-57.4-29l-43.2-0.9l-4.6,7.3l46.4-0.8C202.3,333.9,221.8,340.2,238.2,363.2z"/>
		<path class="st4" d="M237.8,363.8l0.4-0.6l0.4-0.6c0.7,1,1.2,1.3,1.5,1.3l0,0c0.4,0,0.9-0.4,1.7-1.4l0,0c0.7-0.8,1.2-1.8,1.2-2.4
			l0,0c0-0.5-0.2-1.1-1.2-1.9l0,0c-10.1-7.8-21.1-28.8-57.2-28.9l0,0l-42.9-0.9l-3.5,5.6l45.1-0.7c0.4,0,0.9,0,1.4,0l0,0
			c18.8,0,37.9,6.6,54,29.2l0,0l-0.4,0.6L237.8,363.8c-15.9-22.3-34.6-28.7-53.2-28.7l0,0c-0.4,0-0.9,0-1.3,0l0,0l-47.8,0.8l5.7-9.1
			l43.4,0.9c36.3,0,47.9,21.6,57.7,29l0,0c1.2,0.9,1.8,2.1,1.8,3.4l0,0c0,1.6-0.8,2.8-1.6,3.7l0,0c-0.8,0.9-1.4,1.7-2.4,1.7l0,0
			C239.3,365.6,238.6,365,237.8,363.8L237.8,363.8z"/>
	</g>
	<g id="path4209_1_">
		<path inkscape:connector-curvature="0" class="st2" d="M107.1,344.6l13.3-0.8"/>
		<path class="st4" d="M106.5,344.7c0-0.5,0.2-0.9,0.5-0.9l0,0l13.3-0.8c0.3,0,0.6,0.3,0.6,0.8l0,0c0,0.5-0.2,0.9-0.5,0.9l0,0
			l-13.3,0.8c0,0,0,0,0,0l0,0C106.8,345.5,106.5,345.1,106.5,344.7L106.5,344.7z"/>
	</g>
	<g id="path4207_1_">
		<path inkscape:connector-curvature="0" class="st2" d="M90.6,325.7l16.8,10"/>
		<path class="st4" d="M107.2,336.4l-16.8-10c-0.3-0.2-0.4-0.7-0.3-1.1l0,0c0.1-0.4,0.4-0.7,0.7-0.5l0,0l16.8,10
			c0.3,0.2,0.4,0.7,0.3,1.1l0,0c-0.1,0.3-0.3,0.5-0.5,0.5l0,0C107.3,336.5,107.2,336.5,107.2,336.4L107.2,336.4z"/>
	</g>
	<g id="path4203_1_">
		<path inkscape:connector-curvature="0" class="st2" d="M77,282.8l22.5,22.4"/>
		<path class="st4" d="M99.2,306l-22.5-22.4c-0.3-0.3-0.3-0.8-0.2-1.2l0,0c0.2-0.4,0.5-0.5,0.8-0.2l0,0l22.5,22.4
			c0.3,0.3,0.3,0.8,0.2,1.2l0,0c-0.1,0.2-0.3,0.4-0.5,0.4l0,0C99.4,306.1,99.3,306.1,99.2,306L99.2,306z"/>
	</g>
	<g id="path4213_1_">
		<path inkscape:connector-curvature="0" class="st2" d="M117.6,296.5l-7.6-11.4"/>
		<path class="st4" d="M117.2,297.1l-7.6-11.4c-0.2-0.3-0.2-0.9,0-1.2l0,0c0.2-0.3,0.6-0.3,0.8,0l0,0l7.6,11.4
			c0.2,0.3,0.2,0.9,0,1.2l0,0c-0.1,0.2-0.3,0.3-0.4,0.3l0,0C117.5,297.3,117.3,297.3,117.2,297.1L117.2,297.1z"/>
	</g>
	<g id="path4211_1_">
		<path inkscape:connector-curvature="0" class="st2" d="M130.7,301.7l-8.8-9.9"/>
		<path class="st4" d="M130.4,302.4l-8.8-9.9c-0.3-0.3-0.3-0.8-0.1-1.2l0,0c0.2-0.4,0.5-0.5,0.8-0.2l0,0l8.8,9.9
			c0.2,0.3,0.3,0.8,0.1,1.2l0,0c-0.1,0.2-0.3,0.3-0.5,0.3l0,0C130.6,302.5,130.5,302.5,130.4,302.4L130.4,302.4z"/>
	</g>
	<g id="g4837_1_" transform="matrix(1.7291091,0,0,1.7291091,-0.45391,3.350149)">
		<g id="path4205_1_">
			<path inkscape:connector-curvature="0" class="st2" d="M50.3,175.1l8.4,7.9"/>
			<path class="st4" d="M58.6,183.2l-8.4-7.9c-0.1-0.1-0.1-0.3-0.1-0.4l0,0c0.1-0.1,0.2-0.2,0.3-0.1l0,0l8.4,7.9
				c0.1,0.1,0.1,0.3,0.1,0.4l0,0C58.8,183.2,58.8,183.3,58.6,183.2L58.6,183.2C58.7,183.3,58.6,183.2,58.6,183.2L58.6,183.2z"/>
		</g>
		<g id="g4034_1_">
			<g id="path4017_1_">
				<path inkscape:connector-curvature="0" class="st2" d="M57.4,181.8c5.2-5.1,11.1-0.4,11.1,3.8C64.9,187.5,60.1,189.4,57.4,181.8
					z"/>
				<path class="st4" d="M57.2,181.9l0.2-0.1l0.1,0.2l-0.1-0.2L57.2,181.9l-0.1-0.2l0.1-0.1c1.6-1.6,3.3-2.3,4.9-2.3l0,0
					c3.5,0,6.4,3.2,6.4,6.3l0,0l0,0.2l-0.1,0.1c-1.6,0.9-3.5,1.7-5.3,1.7l0,0c0,0,0,0,0,0l0,0C60.9,187.5,58.7,186.2,57.2,181.9
					L57.2,181.9z M63.2,187c1.7,0,3.5-0.8,5.1-1.6l0,0c-0.1-1.2-0.7-2.6-1.8-3.6l0,0c-1.1-1.1-2.6-1.9-4.3-1.9l0,0
					c-1.5,0-3,0.6-4.6,2l0,0C59.1,185.8,61.1,187,63.2,187L63.2,187z"/>
			</g>
			<g id="path4019_1_">
				<path inkscape:connector-curvature="0" class="st2" d="M60.1,166.9c-0.2,7.9,4.7,13.9,10.1,13.2
					C68.9,171.6,62.9,166.5,60.1,166.9L60.1,166.9z"/>
				<path class="st4" d="M59.9,167.3c0-0.1,0-0.3,0-0.4l0,0l0-0.2l0.2,0c0.1,0,0.2,0,0.3,0l0,0c3,0,8.7,5,10,13.4l0,0l0,0.3l-0.2,0
					c-0.3,0-0.6,0.1-0.9,0.1l0,0C64.3,180.4,59.9,174.8,59.9,167.3L59.9,167.3z M60.3,167.3c0,7.1,4.2,12.5,9,12.5l0,0
					c0.2,0,0.4,0,0.6,0l0,0c-1.3-7.9-6.8-12.7-9.5-12.7l0,0c0,0-0.1,0-0.1,0l0,0C60.3,167.2,60.3,167.3,60.3,167.3L60.3,167.3z"/>
			</g>
			<g id="path4021_1_">
				<path inkscape:connector-curvature="0" class="st2" d="M56.7,173.4c0.8,6.1,7.1,9,11.6,7C67.5,174.2,59.5,171.1,56.7,173.4z"/>
				<path class="st4" d="M56.5,173.5l0-0.2l0.1-0.1c0.7-0.6,1.6-0.8,2.7-0.8l0,0c3.6,0,8.5,2.9,9.2,8l0,0l0,0.3l-0.2,0.1
					c-1,0.4-2,0.6-3.1,0.6l0,0C61.3,181.3,57.2,178.5,56.5,173.5L56.5,173.5z M65.3,180.8c1,0,1.9-0.2,2.8-0.6l0,0
					c-0.7-4.5-5.5-7.3-8.8-7.3l0,0c-0.9,0-1.8,0.2-2.4,0.6l0,0C57.5,178.1,61.5,180.8,65.3,180.8L65.3,180.8z"/>
			</g>
			<g id="path4015_1_">
				<path inkscape:connector-curvature="0" class="st2" d="M67.9,168.7c5.8,0.9,7.7,8.7,8.4,14.6C71.2,181.6,66,178.6,67.9,168.7z"
					/>
				<path class="st4" d="M76.2,183.5c-2.2-0.7-4.4-1.7-6.1-3.3l0,0c-1.7-1.7-2.8-4.1-2.8-7.6l0,0c0-1.2,0.1-2.5,0.4-4l0,0l0-0.2
					l0.2,0c5.9,1,7.9,8.9,8.5,14.8l0,0l0,0.4L76.2,183.5L76.2,183.5z M67.7,172.6c0,3.3,1.1,5.5,2.7,7.1l0,0
					c1.5,1.5,3.6,2.5,5.7,3.2l0,0c-0.7-5.8-2.6-12.9-8-13.9l0,0C67.8,170.3,67.7,171.5,67.7,172.6L67.7,172.6z"/>
			</g>
			<g id="path4009_1_">
				<path inkscape:connector-curvature="0" class="st2" d="M60.3,190.9c3.6-7,8.9-5.9,14.8-1.4C70.6,196.5,65.5,194.7,60.3,190.9
					L60.3,190.9z"/>
				<path class="st4" d="M68.1,194.6c-2.6,0-5.2-1.4-7.9-3.4l0,0l0.1-0.3l0.1,0.2l-0.1-0.2l-0.1,0.3l-0.2-0.2l0.1-0.3
					c1.9-3.6,4.2-5.1,6.8-5.1l0,0c2.5,0,5.3,1.4,8.3,3.6l0,0l0.2,0.2l-0.2,0.3C73,193.2,70.6,194.6,68.1,194.6L68.1,194.6
					C68.1,194.6,68.1,194.6,68.1,194.6L68.1,194.6z M68.1,194c2.3,0,4.6-1.2,6.7-4.4l0,0c-2.8-2.1-5.5-3.4-7.9-3.4l0,0
					c-2.4,0-4.6,1.3-6.3,4.6l0,0C63.2,192.7,65.7,194,68.1,194L68.1,194z"/>
			</g>
			<g id="path4011_1_">
				<path inkscape:connector-curvature="0" class="st2" d="M64.7,179.2c5.3-3.1,12.9,1.3,13.3,9.1C72.6,190.5,64.3,188.5,64.7,179.2
					z"/>
				<path class="st4" d="M67.4,187.2c-1.8-1.5-3-4-3-7.4l0,0c0-0.2,0-0.4,0-0.6l0,0l0-0.2l0.1-0.1c1.2-0.7,2.5-1,3.8-1l0,0
					c4.6,0,9.4,4.1,9.8,10.3l0,0l0,0.2l-0.2,0.1c-1.3,0.5-2.8,0.8-4.3,0.8l0,0C71.5,189.4,69.2,188.7,67.4,187.2L67.4,187.2z
					 M64.8,179.8c0,3.2,1.1,5.4,2.8,6.9l0,0c1.7,1.5,3.9,2.1,6.2,2.1l0,0c1.4,0,2.8-0.3,4-0.7l0,0c-0.5-5.7-5-9.6-9.4-9.6l0,0
					c-1.2,0-2.4,0.3-3.5,0.9l0,0C64.8,179.5,64.8,179.6,64.8,179.8L64.8,179.8z"/>
			</g>
			<g id="path4013_1_">
				<path inkscape:connector-curvature="0" class="st2" d="M75,171.5c4.4,3.3,9.1,6.1,8.7,16.9C74.6,191.7,75,180.4,75,171.5
					L75,171.5z"/>
				<path class="st4" d="M75.4,183.3c-0.7-3.5-0.6-7.9-0.6-11.8l0,0l0.2,0l-0.2,0l0-0.5l0.3,0.2c4.2,3.1,8.8,5.9,8.8,15.8l0,0
					c0,0.5,0,0.9,0,1.4l0,0l0,0.2l-0.1,0c-1.1,0.4-2.1,0.6-2.9,0.6l0,0c0,0,0,0,0,0l0,0C77.6,189.3,76.1,186.7,75.4,183.3
					L75.4,183.3z M75.8,183.1c0.7,3.3,2,5.6,5,5.6l0,0c0.8,0,1.7-0.2,2.7-0.5l0,0c0-0.4,0-0.8,0-1.2l0,0c0-9.3-4.2-12-8.3-15.1l0,0
					C75.2,175.8,75.1,179.9,75.8,183.1L75.8,183.1z"/>
			</g>
			<g id="path4007_1_">
				<path inkscape:connector-curvature="0" class="st2" d="M68.1,197.1c6.1,1.6,11.4-0.2,15.6-8.4C79.1,186.2,71.9,187.9,68.1,197.1
					z"/>
				<path class="st4" d="M71.8,197.9c-1.2,0-2.5-0.2-3.8-0.5l0,0c-0.1,0-0.1-0.1-0.1-0.2l0,0c0-0.1,0-0.2,0-0.3l0,0
					c2.8-6.8,7.5-9.5,11.6-9.5l0,0c1.5,0,2.9,0.4,4.2,1l0,0c0.1,0,0.1,0.1,0.1,0.2l0,0c0,0.1,0,0.2,0,0.3l0,0
					C80.5,195.3,76.4,197.9,71.8,197.9L71.8,197.9C71.9,197.9,71.8,197.9,71.8,197.9L71.8,197.9z M71.8,197.3
					c4.4,0,8.2-2.4,11.5-8.5l0,0c-1.2-0.6-2.5-0.9-3.8-0.9l0,0c-3.9,0-8.4,2.5-11.1,8.9l0,0C69.6,197.2,70.7,197.3,71.8,197.3
					L71.8,197.3z"/>
			</g>
		</g>
	</g>
	<g id="path4215_1_">
		<path inkscape:connector-curvature="0" class="st2" d="M103.7,292.4l-5.7-9"/>
		<path class="st4" d="M103.3,293l-5.7-9c-0.2-0.3-0.2-0.9,0-1.2l0,0c0.2-0.3,0.6-0.3,0.8,0l0,0l5.7,9c0.2,0.3,0.2,0.9,0,1.2l0,0
			c-0.1,0.2-0.2,0.2-0.4,0.2l0,0C103.5,293.3,103.4,293.2,103.3,293L103.3,293z"/>
	</g>
	<g id="path4001_1_">
		<path inkscape:connector-curvature="0" class="st2" d="M147.2,344.4h12.7c11.7-12.7,16.4-27.3,36.3-28.5c7.3-0.5,14,9.7,15.4,14.3
			c-9.5-7.7-16.9-5.1-27.6,12.6c-5.2,8.5-11.9,13.8-20.9,14.7C151.1,358.7,151.3,349.8,147.2,344.4z"/>
		<path class="st4" d="M151.4,353.5c-1.8-2.8-2.8-6.1-4.6-8.4l0,0l0.4-0.6l-0.4,0.6l-1.1-1.5h14.1c11.5-12.5,16.4-27.3,36.4-28.5
			l0,0c0.2,0,0.3,0,0.5,0l0,0c7.4,0.1,13.9,10,15.5,14.8l0,0l0.7,2.3l-1.5-1.2c-3.2-2.6-6.2-4-9.1-4l0,0c-5.4,0-10.9,4.9-17.9,16.5
			l0,0c-5.2,8.7-12.1,14-21.2,15l0,0c-0.8,0.1-1.5,0.1-2.2,0.1l0,0c0,0,0,0-0.1,0l0,0C155.9,358.4,153.3,356.3,151.4,353.5
			L151.4,353.5z M152.2,352.3c1.7,2.5,3.9,4.4,8.8,4.4l0,0c0.7,0,1.4,0,2.1-0.1l0,0c8.9-0.9,15.4-6.1,20.5-14.4l0,0
			c7.1-11.7,12.8-17,18.7-17l0,0c2.6,0,5.1,1,7.8,2.8l0,0c-2.4-4.7-7.8-11.4-13.4-11.3l0,0c-0.2,0-0.3,0-0.5,0l0,0
			c-19.7,1.3-24.1,15.5-36,28.4l0,0l-0.1,0.2h-11.5C150,347.6,150.9,350.3,152.2,352.3L152.2,352.3z"/>
	</g>
	<g id="path4911_1_">
		<path inkscape:connector-curvature="0" class="st2" d="M324,252.7"/>
		<path class="st3" d="M324,252.7"/>
	</g>
	<g id="g4913_1_" transform="matrix(-1.7291091,0,0,1.7291091,480.60238,3.350149)">
		<g id="g4915_1_">
			<g id="path4917_1_">
				<path inkscape:connector-curvature="0" class="st2" d="M93.2,91.3l-1,13"/>
				<path class="st4" d="M92.4,104.4l1-13c0-0.2-0.1-0.3-0.2-0.3l0,0c-0.1,0-0.2,0.1-0.2,0.2l0,0l-1,13c0,0.2,0.1,0.3,0.2,0.3l0,0
					c0,0,0,0,0,0l0,0C92.3,104.6,92.4,104.5,92.4,104.4L92.4,104.4z"/>
			</g>
			<g id="path4919_1_">
				<path inkscape:connector-curvature="0" class="st2" d="M95.3,103.7l-1.3,12"/>
				<path class="st4" d="M94.2,115.8l1.3-12c0-0.2-0.1-0.3-0.2-0.3l0,0c-0.1,0-0.2,0.1-0.2,0.2l0,0l-1.3,12c0,0.2,0.1,0.3,0.2,0.3
					l0,0c0,0,0,0,0,0l0,0C94.1,116,94.2,115.9,94.2,115.8L94.2,115.8z"/>
			</g>
			<g id="path4921_1_">
				<path inkscape:connector-curvature="0" class="st2" d="M84.3,94l-0.5,12.7"/>
				<path class="st4" d="M84,106.8L84.5,94c0-0.2-0.1-0.3-0.2-0.3l0,0c-0.1,0-0.2,0.1-0.2,0.3l0,0l-0.5,12.7c0,0.2,0.1,0.3,0.2,0.3
					l0,0c0,0,0,0,0,0l0,0C84,107.1,84,106.9,84,106.8L84,106.8z"/>
			</g>
			<g id="path4923_1_">
				<path inkscape:connector-curvature="0" class="st2" d="M79.9,100.5l0.6,13.2"/>
				<path class="st4" d="M80.6,114c0.1,0,0.2-0.1,0.2-0.3l0,0l-0.6-13.2c0-0.2-0.1-0.3-0.2-0.3l0,0c-0.1,0-0.2,0.1-0.2,0.3l0,0
					l0.6,13.2C80.4,113.9,80.5,114,80.6,114L80.6,114C80.6,114,80.6,114,80.6,114L80.6,114z"/>
			</g>
			<g id="path4925_1_">
				<path inkscape:connector-curvature="0" class="st2" d="M88.3,102.9l1.6-20.1"/>
				<path class="st4" d="M88.5,102.9l1.6-20.1c0-0.2-0.1-0.3-0.2-0.3l0,0c-0.1,0-0.2,0.1-0.2,0.2l0,0l-1.6,20.1
					c0,0.2,0.1,0.3,0.2,0.3l0,0c0,0,0,0,0,0l0,0C88.4,103.2,88.5,103.1,88.5,102.9L88.5,102.9z"/>
			</g>
			<g id="path4927_1_">
				<path inkscape:connector-curvature="0" class="st2" d="M96.2,111.1l-1.7,12.8"/>
				<path class="st4" d="M94.7,124l1.7-12.8c0-0.2,0-0.3-0.1-0.3l0,0c-0.1,0-0.2,0.1-0.2,0.2l0,0l-1.7,12.8c0,0.2,0,0.3,0.2,0.3l0,0
					c0,0,0,0,0,0l0,0C94.6,124.2,94.7,124.1,94.7,124L94.7,124z"/>
			</g>
			<g id="path4929_1_">
				<path inkscape:connector-curvature="0" class="st2" d="M80.2,125.5l-2-8.4"/>
				<path class="st4" d="M80.3,125.7c0.1-0.1,0.1-0.2,0.1-0.4l0,0l-2-8.4c0-0.1-0.1-0.2-0.2-0.2l0,0c-0.1,0.1-0.1,0.2-0.1,0.4l0,0
					l2,8.4C80.1,125.7,80.2,125.8,80.3,125.7L80.3,125.7C80.3,125.7,80.3,125.7,80.3,125.7L80.3,125.7z"/>
			</g>
		</g>
		<g id="g4931_1_">
			<g id="path4933_1_">
				<path inkscape:connector-curvature="0" class="st2" d="M92.4,103.1c1.7,7.8-1.8,16.7-3.7,19.3C88.8,116.4,88.8,105.3,92.4,103.1
					z"/>
				<path class="st4" d="M88.8,122.7c1.6-2.2,4.2-8.5,4.2-15.1l0,0c0-1.5-0.1-3-0.4-4.5l0,0l-0.1-0.3l-0.2,0.1
					c-1.9,1.2-2.8,4.6-3.3,8.5l0,0c-0.5,3.8-0.5,8.1-0.5,11.1l0,0l0,0.7L88.8,122.7L88.8,122.7z M92.6,107.5
					c0,5.9-2.2,11.8-3.7,14.2l0,0c0-2.9,0.1-6.9,0.5-10.4l0,0c0.4-3.6,1.3-6.8,2.9-7.9l0,0C92.5,104.8,92.6,106.2,92.6,107.5
					L92.6,107.5z M92.5,103.4l-0.1-0.3L92.5,103.4L92.5,103.4z"/>
			</g>
			<g id="path4935_1_">
				<path inkscape:connector-curvature="0" class="st2" d="M94.1,114.2c-5.4,2.1-4.3,8.6-5.3,16C91.4,126.8,94.8,125.1,94.1,114.2z"
					/>
				<path class="st4" d="M88.9,130.5c2.3-3.1,5.5-4.9,5.5-13.4l0,0c0-0.9,0-1.8-0.1-2.9l0,0l0-0.3l-0.2,0.1
					c-2.7,1.1-3.9,3.3-4.4,6.2l0,0c-0.5,2.9-0.5,6.4-1,10l0,0l-0.1,0.8L88.9,130.5L88.9,130.5z M94,117c0,7.8-2.6,9.6-5,12.5l0,0
					c0.4-3.4,0.4-6.6,0.9-9.2l0,0c0.5-2.7,1.5-4.7,4-5.7l0,0C94,115.4,94,116.3,94,117L94,117z"/>
			</g>
			<g id="path4937_1_">
				<path inkscape:connector-curvature="0" class="st2" d="M84,104.9c-3.2,5.4,0,12.7,1.6,17.6C87.4,116.3,87.6,108.2,84,104.9z"/>
				<path class="st4" d="M85.8,122.6c0.8-2.7,1.3-5.8,1.3-8.7l0,0c0-3.8-0.8-7.3-2.9-9.2l0,0l-0.1-0.1l-0.1,0.2
					c-1,1.7-1.4,3.7-1.4,5.6l0,0c0,4.4,1.9,8.9,2.9,12.2l0,0l0.2,0.6L85.8,122.6L85.8,122.6z M86.7,113.8c0,2.6-0.4,5.4-1.1,7.9l0,0
					c-1.1-3.3-2.7-7.5-2.7-11.4l0,0c0-1.8,0.3-3.5,1.2-5.1l0,0C85.9,107.1,86.7,110.3,86.7,113.8L86.7,113.8z"/>
			</g>
			<g id="path4939_1_">
				<path inkscape:connector-curvature="0" class="st2" d="M80.5,112.8c0.1,8.6,1.5,15.7,6,19.3C86.1,122.1,84.6,114.4,80.5,112.8z"
					/>
				<path class="st4" d="M86.6,132.1c-0.4-10.1-1.8-17.9-6.1-19.6l0,0l-0.2-0.1l0,0.4c0.1,8.7,1.5,15.9,6.1,19.6l0,0l0.3,0.2
					L86.6,132.1L86.6,132.1z M86.2,131.6c-4.1-3.6-5.4-10.2-5.5-18.5l0,0C84.4,114.8,85.8,122,86.2,131.6L86.2,131.6z"/>
			</g>
			<g id="path4941_1_">
				<path inkscape:connector-curvature="0" class="st2" d="M88.4,101.1c-3.6,5.8-2.2,15-0.1,19.6C89.4,116,91.3,106,88.4,101.1z"/>
				<path class="st4" d="M88.5,120.8c0.7-2.9,1.6-7.7,1.6-12.2l0,0c0-2.9-0.4-5.7-1.6-7.7l0,0l-0.1-0.2l-0.1,0.2
					c-1.6,2.7-2.3,6-2.3,9.3l0,0c0,4.1,1,8,2.2,10.6l0,0l0.2,0.4L88.5,120.8L88.5,120.8z M89.7,108.6c0,4.1-0.8,8.6-1.5,11.4l0,0
					c-1.1-2.5-1.9-6.1-1.9-9.8l0,0c0-3.1,0.6-6.2,2-8.7l0,0C89.4,103.4,89.7,105.9,89.7,108.6L89.7,108.6z"/>
			</g>
			<g id="path4943_1_">
				<path inkscape:connector-curvature="0" class="st2" d="M87.3,113.1c2.7,6.4,3.2,15.4,0.2,21.8C84.2,129.1,85.1,119.5,87.3,113.1
					z"/>
				<path class="st4" d="M87.6,135.1c1.4-3.1,2.1-6.7,2.1-10.4l0,0c0-4.1-0.8-8.3-2.2-11.7l0,0l-0.2-0.4l-0.2,0.4
					c-1.2,3.4-2,7.8-2,12l0,0c0,3.7,0.6,7.3,2.2,10.1l0,0l0.2,0.3L87.6,135.1L87.6,135.1z M89.3,124.7c0,3.5-0.6,6.9-1.9,9.8l0,0
					c-1.4-2.6-1.9-6-1.9-9.5l0,0c0-3.9,0.7-8,1.8-11.3l0,0C88.6,117,89.3,120.9,89.3,124.7L89.3,124.7z M87.5,113.3l-0.2-0.1
					L87.5,113.3L87.5,113.3z"/>
			</g>
			<g id="path4945_1_">
				<path inkscape:connector-curvature="0" class="st2" d="M87.2,138.7c-0.7-5.8,2.2-12.4,7.4-15.9
					C94.7,134.6,91.3,140.2,87.2,138.7z"/>
				<path class="st4" d="M88.5,139.2c1.8,0,3.4-1.4,4.6-4.2l0,0c1.1-2.7,1.8-6.7,1.8-11.9l0,0c0-0.1,0-0.3,0-0.4l0,0l0-0.4l-0.3,0.2
					c-4.8,3.2-7.6,9-7.6,14.5l0,0c0,0.6,0,1.2,0.1,1.8l0,0l0,0.2l0.1,0C87.6,139.2,88,139.2,88.5,139.2L88.5,139.2
					C88.5,139.2,88.5,139.2,88.5,139.2L88.5,139.2z M92.7,134.8c-1.1,2.6-2.6,3.9-4.2,3.9l0,0c-0.4,0-0.7-0.1-1.1-0.2l0,0
					c-0.1-0.5-0.1-1-0.1-1.5l0,0c0-5.1,2.6-10.6,7.2-13.8l0,0C94.5,128.3,93.8,132.2,92.7,134.8L92.7,134.8z"/>
			</g>
			<g id="path4947_1_">
				<path inkscape:connector-curvature="0" class="st2" d="M88.6,139c-5.9-0.5-7.8-6.8-8.7-14.7C84.1,126.2,86.9,131.1,88.6,139z"/>
				<path class="st4" d="M88.8,139.1c0-0.1,0.1-0.2,0-0.3l0,0c-1.7-8-4.5-13-8.8-14.9l0,0c-0.1,0-0.1,0-0.2,0.1l0,0
					c0,0.1-0.1,0.2-0.1,0.3l0,0c0.9,8,2.8,14.5,8.9,15l0,0l0-0.3l0,0.3c0,0,0,0,0,0l0,0C88.7,139.2,88.7,139.2,88.8,139.1
					L88.8,139.1z M88.3,138.7c-5.5-0.6-7.2-6.4-8.2-14l0,0C84.1,126.6,86.7,131.2,88.3,138.7L88.3,138.7z"/>
			</g>
		</g>
	</g>
	<g id="g4949_1_" transform="matrix(-1.7291091,0,0,1.7291091,480.60238,3.350149)">
		<g id="g4951_1_">
			<g id="path4953_1_">
				<path inkscape:connector-curvature="0" class="st4" d="M68.2,139.6l6.1,12.3"/>
				<path class="st4" d="M74.5,152.1c0.1-0.1,0.1-0.3,0-0.4l0,0l-6.1-12.3c-0.1-0.1-0.2-0.2-0.3-0.1l0,0c-0.1,0.1-0.1,0.3,0,0.4l0,0
					l6.1,12.3c0,0.1,0.1,0.1,0.2,0.1l0,0C74.4,152.1,74.4,152.1,74.5,152.1L74.5,152.1z"/>
			</g>
			<g id="g4955_1_">
				<g id="path4957_1_">
					<path inkscape:connector-curvature="0" class="st4" d="M69.8,130.4l3.9,11.6"/>
					<path class="st4" d="M73.8,142.2c0.1-0.1,0.1-0.2,0.1-0.4l0,0l-3.9-11.6c0-0.1-0.2-0.2-0.3-0.1l0,0c-0.1,0.1-0.1,0.2-0.1,0.4
						l0,0l3.9,11.6C73.6,142.2,73.6,142.2,73.8,142.2L73.8,142.2C73.7,142.2,73.8,142.2,73.8,142.2L73.8,142.2z"/>
				</g>
				<g id="path4959_1_">
					<path inkscape:connector-curvature="0" class="st4" d="M76.6,134.5l-7.5-17.9"/>
					<path class="st4" d="M76.7,134.8c0.1-0.1,0.1-0.3,0.1-0.4l0,0l-7.5-17.9c-0.1-0.1-0.2-0.2-0.3-0.1l0,0
						c-0.1,0.1-0.1,0.3-0.1,0.4l0,0l7.5,17.9C76.5,134.8,76.5,134.8,76.7,134.8L76.7,134.8C76.6,134.8,76.7,134.8,76.7,134.8
						L76.7,134.8z"/>
				</g>
				<g id="path4961_1_">
					<path inkscape:connector-curvature="0" class="st4" d="M74.9,157.9l6.3,4"/>
					<path class="st4" d="M81.4,162c0-0.1,0-0.3-0.1-0.4l0,0l-6.3-4c-0.1-0.1-0.2,0-0.2,0.2l0,0c0,0.1,0,0.3,0.1,0.4l0,0l6.3,4
						c0,0,0,0,0.1,0l0,0C81.3,162.2,81.3,162.1,81.4,162L81.4,162z"/>
				</g>
				<g id="path4963_1_">
					<path inkscape:connector-curvature="0" class="st4" d="M79.9,129.7l-3.9-9.9"/>
					<path class="st4" d="M80,129.9c0.1-0.1,0.1-0.3,0.1-0.4l0,0l-3.9-9.9c-0.1-0.1-0.2-0.2-0.3-0.1l0,0c-0.1,0.1-0.1,0.3-0.1,0.4
						l0,0l3.9,9.9C79.7,129.9,79.8,129.9,80,129.9L80,129.9C79.9,129.9,79.9,129.9,80,129.9L80,129.9z"/>
				</g>
				<g id="path4965_1_">
					<path inkscape:connector-curvature="0" class="st4" d="M85.7,137.3l-1.9-7.5"/>
					<path class="st4" d="M85.8,137.5c0.1-0.1,0.1-0.2,0.1-0.4l0,0l-1.9-7.5c0-0.1-0.1-0.2-0.2-0.2l0,0c-0.1,0.1-0.1,0.2-0.1,0.4
						l0,0l1.9,7.5C85.5,137.5,85.6,137.5,85.8,137.5L85.8,137.5C85.7,137.5,85.7,137.5,85.8,137.5L85.8,137.5z"/>
				</g>
				<g id="path4967_1_">
					<path inkscape:connector-curvature="0" class="st4" d="M90.8,144.5l-3.6-8"/>
					<path class="st4" d="M90.9,144.8c0.1-0.1,0.1-0.3,0.1-0.4l0,0l-3.6-8c-0.1-0.1-0.2-0.2-0.3-0.1l0,0c-0.1,0.1-0.1,0.3-0.1,0.4
						l0,0l3.6,8c0,0.1,0.1,0.1,0.2,0.1l0,0C90.8,144.8,90.9,144.8,90.9,144.8L90.9,144.8z"/>
				</g>
			</g>
		</g>
		<g id="g4969_1_">
			<g id="path4971_1_">
				<path inkscape:connector-curvature="0" class="st2" d="M73.1,140.4c3.5-1.8,7.1-0.3,7.8,11.6C76.2,150.2,73.1,146.3,73.1,140.4z
					"/>
				<path class="st4" d="M81.1,151.9c-0.5-9.3-2.9-12.5-5.7-12.5l0,0c-0.8,0-1.6,0.2-2.4,0.7l0,0l0.1,0.3l-0.1-0.3l-0.1,0.1l0,0.2
					c0,0,0,0.1,0,0.1l0,0c0,6,3.2,10,8,11.7l0,0l0.3,0.1L81.1,151.9L81.1,151.9z M80.7,151.6c-4.5-1.8-7.4-5.5-7.4-11l0,0
					c0.7-0.4,1.4-0.6,2.1-0.6l0,0C77.9,140.1,80.2,142.7,80.7,151.6L80.7,151.6z"/>
			</g>
			<g id="path4973_1_">
				<path inkscape:connector-curvature="0" class="st2" d="M79.7,129.2c5,3.9,6.7,13.4,5.5,19.5C81,146.3,78.1,137.2,79.7,129.2z"/>
				<path class="st4" d="M85.4,148.8c0.2-1.3,0.3-2.7,0.3-4.1l0,0c0-5.8-1.9-12.6-6-15.8l0,0l-0.2-0.2l-0.1,0.3
					c-0.3,1.6-0.5,3.2-0.5,4.7l0,0c0,6.7,2.6,13.1,6.1,15.1l0,0l0.2,0.1L85.4,148.8L85.4,148.8z M85.4,144.7c0,1.3-0.1,2.5-0.3,3.7
					l0,0c-3.3-2-5.7-8.1-5.7-14.5l0,0c0-1.4,0.1-2.9,0.4-4.3l0,0C83.6,132.7,85.4,139.2,85.4,144.7L85.4,144.7z M79.9,129.3
					l-0.2-0.1L79.9,129.3L79.9,129.3z"/>
			</g>
			<g id="path4975_1_">
				<path inkscape:connector-curvature="0" class="st2" d="M85.7,136.8c-2.8,7.6-0.7,14.5,3,21.2C89.3,150.5,90.5,142.8,85.7,136.8z
					"/>
				<path class="st4" d="M88.8,158c0.3-3.1,0.6-6.2,0.6-9.2l0,0c0-4.4-0.8-8.6-3.7-12.3l0,0l-0.2-0.2l-0.1,0.3
					c-0.9,2.5-1.3,4.9-1.3,7.2l0,0c0,5,1.8,9.7,4.3,14.3l0,0l0.3,0.5L88.8,158L88.8,158z M89.1,148.8c0,2.8-0.3,5.6-0.6,8.5l0,0
					c-2.3-4.4-3.9-8.8-3.9-13.4l0,0c0-2.2,0.3-4.4,1.1-6.7l0,0C88.4,140.6,89,144.6,89.1,148.8L89.1,148.8z"/>
			</g>
			<g id="path4977_1_">
				<path inkscape:connector-curvature="0" class="st2" d="M75.4,131.9c-1.1,5.1,2.6,16.6,8.1,15.4
					C82.6,140.2,79.5,133.4,75.4,131.9z"/>
				<path class="st4" d="M83.6,147.7l0.2,0l0-0.3c-1-7.3-4.1-14.2-8.3-15.7l0,0l-0.2-0.1l-0.1,0.3c-0.1,0.6-0.2,1.4-0.2,2.1l0,0
					c0,5.4,3.1,13.7,7.8,13.8l0,0C83,147.7,83.3,147.7,83.6,147.7L83.6,147.7z M82.8,147.2c-2.2,0-4-2-5.3-4.6l0,0
					c-1.3-2.7-2.1-6-2.1-8.6l0,0c0-0.6,0-1.2,0.1-1.7l0,0c3.8,1.5,6.8,7.9,7.8,14.9l0,0C83.1,147.2,83,147.2,82.8,147.2L82.8,147.2z
					"/>
			</g>
			<g id="path4979_1_">
				<path inkscape:connector-curvature="0" class="st2" d="M73.6,150.6c2.6,8.3,7.8,9.3,13,10.1C82.6,154.6,78.8,146.5,73.6,150.6z"
					/>
				<path class="st4" d="M86.7,160.5c-3.3-4.9-6.3-11.3-10.3-11.3l0,0c-0.9,0-1.9,0.4-2.9,1.1l0,0l0.1,0.3l-0.1-0.3l-0.2,0.1
					l0.1,0.2c2.6,8.4,7.9,9.4,13.1,10.3l0,0l0.5,0.1L86.7,160.5L86.7,160.5z M86.1,160.3c-5-0.9-9.8-2-12.2-9.6l0,0
					c0.9-0.7,1.7-1,2.5-1l0,0c0,0,0,0,0,0l0,0C80,149.7,83,155.5,86.1,160.3L86.1,160.3z"/>
			</g>
			<g id="path4981_1_">
				<path inkscape:connector-curvature="0" class="st2" d="M79.9,144.1c5.2,2.3,8.9,7,9.5,17.5C83.7,159.1,80.3,153.7,79.9,144.1z"
					/>
				<path class="st4" d="M89.5,161.5c-0.6-10.5-4.4-15.4-9.6-17.7l0,0l-0.3-0.1l0,0.4c0.4,9.7,3.9,15.3,9.6,17.7l0,0l0.3,0.1
					L89.5,161.5L89.5,161.5z M89.1,161.1c-5.3-2.4-8.6-7.6-9.1-16.7l0,0C85,146.7,88.5,151.3,89.1,161.1L89.1,161.1z"/>
			</g>
			<g id="path4983_1_">
				<path inkscape:connector-curvature="0" class="st2" d="M90.4,143.8c-2.8,9.5-2.3,17.2,2.9,22.3
					C95.7,155.8,93.5,149.5,90.4,143.8z"/>
				<path class="st4" d="M93.5,166.2c0.7-3,1-5.7,1-8.2l0,0c0-5.9-1.8-10.4-3.9-14.4l0,0l-0.2-0.4l-0.1,0.4
					c-1.1,3.7-1.7,7.2-1.7,10.4l0,0c0,4.9,1.5,9.1,4.6,12.3l0,0l0.2,0.2L93.5,166.2L93.5,166.2z M94.1,158c0,2.3-0.3,4.8-0.9,7.7
					l0,0c-3-3-4.3-6.9-4.3-11.6l0,0c0-2.9,0.5-6.2,1.5-9.7l0,0C92.5,148.3,94.1,152.4,94.1,158L94.1,158z"/>
			</g>
			<g id="path4985_1_">
				<path inkscape:connector-curvature="0" class="st2" d="M80,161.2c5.3-3.6,10.3-3.2,14.6,3.9C88.6,168.7,83.7,167.5,80,161.2z"/>
				<path class="st4" d="M88.3,167.4c2,0,4.1-0.7,6.3-2.1l0,0l0.3-0.2l-0.2-0.3c-2.6-4.3-5.5-6.2-8.6-6.2l0,0c-2,0-4.1,0.8-6.2,2.3
					l0,0l0.1,0.3l-0.1-0.3l-0.2,0.2l0.2,0.3C82.2,165.4,85.1,167.4,88.3,167.4L88.3,167.4C88.3,167.4,88.3,167.4,88.3,167.4
					L88.3,167.4z M88.3,166.8c-3.1,0-5.8-1.8-8-5.6l0,0c2-1.3,4-2,5.8-2l0,0c2.9,0,5.6,1.7,8.1,5.7l0,0
					C92.1,166.2,90.2,166.8,88.3,166.8L88.3,166.8z"/>
			</g>
		</g>
	</g>
	<g id="path4987_1_">
		<path inkscape:connector-curvature="0" class="st2" d="M335.9,301.6c-59.9-37.1-51.9,37.9-88.6,25.9
			C271.1,324.6,283.9,246.8,335.9,301.6z"/>
		<path class="st5" d="M254.9,329.7c-2.4,0-4.9-0.4-7.7-1.3l0,0l0.1-1.7c8.5-1,15.8-12.2,24.1-23.3l0,0
			c8.4-11.1,17.9-22.1,31.1-22.1l0,0c9.2,0,20.2,5.4,33.7,19.6l0,0l-0.3,0.7l0.2-0.8l-0.2,0.8l0.3-0.7l-0.5,1.5
			c-12-7.4-21.2-10.3-28.6-10.3l0,0c-13.2,0-20.5,9.2-27.5,18.6l0,0C272.7,320,266.2,329.7,254.9,329.7L254.9,329.7
			C254.9,329.7,254.9,329.7,254.9,329.7L254.9,329.7z M254.9,328c10.8,0,16.9-9.1,23.9-18.6l0,0c6.9-9.4,14.6-19,28.2-19l0,0
			c6.5,0,14.4,2.2,24.2,7.6l0,0c-11.4-10.9-20.8-15-28.8-15l0,0c-12.8,0-22,10.6-30.3,21.7l0,0c-7.3,9.7-13.9,19.8-21.6,22.9l0,0
			C252.1,327.8,253.5,328,254.9,328L254.9,328z"/>
	</g>
	<g id="path4989_1_">
		<path inkscape:connector-curvature="0" class="st2" d="M187.5,363.2c-1.7,2.4-2.5,1.6-3.9,0c-1.3-1.5-2.4-3.8,0.1-5.7
			c9.9-7.6,21.2-29,57.4-29l43.2-0.9l4.6,7.3l-46.4-0.8C223.3,333.9,203.9,340.2,187.5,363.2L187.5,363.2z"/>
		<path class="st4" d="M183.2,363.9c-0.8-0.9-1.6-2.1-1.6-3.7l0,0c0-1.3,0.6-2.5,1.8-3.4l0,0c9.7-7.5,21.3-29.1,57.7-29l0,0
			l43.4-0.9l5.7,9.1l-47.8-0.8c-0.4,0-0.9,0-1.3,0l0,0c-18.6,0-37.4,6.5-53.2,28.7l0,0c-0.8,1.1-1.5,1.7-2.3,1.8l0,0
			C184.7,365.5,184,364.7,183.2,363.9L183.2,363.9z M241.1,329.4c-36.1,0-47,21.1-57.2,28.9l0,0c-1,0.8-1.2,1.5-1.2,1.9l0,0
			c0,0.6,0.5,1.6,1.2,2.4l0,0c0.8,0.9,1.3,1.4,1.7,1.4l0,0c0.3,0,0.8-0.3,1.5-1.3l0,0c16.1-22.6,35.2-29.2,54-29.2l0,0
			c0.5,0,0.9,0,1.4,0l0,0l45.1,0.7l-3.5-5.6L241.1,329.4L241.1,329.4z"/>
	</g>
	<g id="path4991_1_">
		<path inkscape:connector-curvature="0" class="st4" d="M318.6,344.6l-13.3-1.3"/>
		<path class="st4" d="M318.5,345.5l-13.3-1.3c-0.3,0-0.5-0.4-0.5-0.9l0,0c0-0.5,0.3-0.8,0.6-0.8l0,0l13.3,1.3
			c0.3,0,0.5,0.4,0.5,0.9l0,0C319.1,345.1,318.8,345.5,318.5,345.5L318.5,345.5C318.5,345.5,318.5,345.5,318.5,345.5L318.5,345.5z"
			/>
	</g>
	<g id="path4993_1_">
		<path inkscape:connector-curvature="0" class="st2" d="M335.1,325.7l-16.6,10.1"/>
		<path class="st4" d="M318,336.1c-0.1-0.4,0-0.9,0.3-1.1l0,0l16.6-10.1c0.3-0.2,0.6,0,0.7,0.5l0,0c0.1,0.4,0,0.9-0.3,1.1l0,0
			l-16.6,10.1c-0.1,0-0.1,0.1-0.2,0.1l0,0C318.3,336.6,318,336.4,318,336.1L318,336.1z"/>
	</g>
	<g id="path4995_1_">
		<path inkscape:connector-curvature="0" class="st2" d="M348.6,282.8l-22.5,22.4"/>
		<path class="st4" d="M325.7,305.7c-0.2-0.4-0.1-0.9,0.2-1.2l0,0l22.5-22.4c0.3-0.3,0.6-0.2,0.8,0.2l0,0c0.2,0.4,0.1,0.9-0.2,1.2
			l0,0L326.4,306c-0.1,0.1-0.2,0.1-0.3,0.1l0,0C325.9,306.1,325.8,306,325.7,305.7L325.7,305.7z"/>
	</g>
	<g id="path4997_1_">
		<path inkscape:connector-curvature="0" class="st2" d="M308,296.5l7.6-11.4"/>
		<path class="st4" d="M307.6,297.1c-0.2-0.3-0.2-0.9,0-1.2l0,0l7.6-11.4c0.2-0.3,0.6-0.3,0.8,0l0,0c0.2,0.3,0.2,0.9,0,1.2l0,0
			l-7.6,11.4c-0.1,0.2-0.3,0.2-0.4,0.2l0,0C307.9,297.3,307.7,297.3,307.6,297.1L307.6,297.1z"/>
	</g>
	<g id="path4999_1_">
		<path inkscape:connector-curvature="0" class="st2" d="M294.7,302.2l9.1-10.4"/>
		<path class="st4" d="M294.2,302.7c-0.2-0.4-0.1-0.9,0.1-1.2l0,0l9.1-10.4c0.2-0.3,0.6-0.2,0.8,0.2l0,0c0.2,0.4,0.1,0.9-0.1,1.2
			l0,0l-9.1,10.4c-0.1,0.1-0.2,0.2-0.3,0.2l0,0C294.5,303,294.3,302.9,294.2,302.7L294.2,302.7z"/>
	</g>
	<g id="g5001_1_" transform="matrix(-1.7291091,0,0,1.7291091,480.60238,3.350149)">
		<g id="path5003_1_">
			<path inkscape:connector-curvature="0" class="st4" d="M81.8,175.1l8.5,7.8"/>
			<path class="st4" d="M90.5,183.1c0.1-0.1,0-0.3-0.1-0.4l0,0l-8.5-7.8c-0.1-0.1-0.2,0-0.3,0.1l0,0c-0.1,0.1,0,0.3,0.1,0.4l0,0
				l8.5,7.8c0,0,0.1,0,0.1,0l0,0C90.4,183.2,90.4,183.2,90.5,183.1L90.5,183.1z"/>
		</g>
		<g id="g5005_1_">
			<g id="path5007_1_">
				<path inkscape:connector-curvature="0" class="st2" d="M88.9,181.8c5.2-5.1,11.1-0.4,11.1,3.8C96.4,187.5,91.6,189.4,88.9,181.8
					z"/>
				<path class="st4" d="M94.7,187.5c1.8,0,3.7-0.9,5.3-1.7l0,0l0.1-0.1l0-0.2c0-3.1-2.9-6.3-6.4-6.3l0,0c-1.6,0-3.3,0.7-4.9,2.3
					l0,0l0.1,0.2l-0.1-0.2l-0.1,0.1l0.1,0.2C90.2,186.2,92.4,187.5,94.7,187.5L94.7,187.5C94.7,187.5,94.7,187.5,94.7,187.5
					L94.7,187.5z M94.7,187c-2.1,0-4.1-1.2-5.6-5.1l0,0c1.5-1.5,3.1-2,4.6-2l0,0c1.7,0,3.2,0.8,4.3,1.9l0,0c1,1.1,1.7,2.4,1.8,3.6
					l0,0C98.2,186.2,96.4,187,94.7,187L94.7,187z"/>
			</g>
			<g id="path5009_1_">
				<path inkscape:connector-curvature="0" class="st2" d="M91.6,166.9c-0.2,7.9,4.7,13.9,10.1,13.2
					C100.5,171.6,94.4,166.5,91.6,166.9L91.6,166.9z"/>
				<path class="st4" d="M101.7,180.4l0.2,0l0-0.3c-1.3-8.4-6.9-13.4-10-13.4l0,0c-0.1,0-0.2,0-0.3,0l0,0l0,0.3l0-0.3l-0.2,0l0,0.3
					c0,0.1,0,0.3,0,0.4l0,0c0,7.4,4.4,13.1,9.4,13.1l0,0C101.1,180.4,101.4,180.4,101.7,180.4L101.7,180.4z M100.8,179.9
					c-4.8,0-9-5.5-9-12.5l0,0c0,0,0-0.1,0-0.1l0,0c0,0,0.1,0,0.1,0l0,0c2.8,0,8.3,4.8,9.5,12.7l0,0
					C101.3,179.9,101.1,179.9,100.8,179.9L100.8,179.9z"/>
			</g>
			<g id="path5011_1_">
				<path inkscape:connector-curvature="0" class="st2" d="M88.2,173.4c0.8,6.1,7.1,9,11.6,7C99,174.2,91,171.1,88.2,173.4z"/>
				<path class="st4" d="M99.9,180.7l0.2-0.1l0-0.3c-0.7-5.1-5.7-8-9.2-8l0,0c-1,0-2,0.3-2.7,0.8l0,0l0.1,0.2l-0.1-0.2l-0.1,0.1
					l0,0.2c0.6,5.1,4.8,7.9,8.8,7.9l0,0C97.9,181.4,98.9,181.1,99.9,180.7L99.9,180.7z M96.8,180.8c-3.8,0-7.7-2.7-8.4-7.2l0,0
					c0.6-0.4,1.4-0.7,2.4-0.6l0,0c3.4,0,8.1,2.8,8.8,7.3l0,0C98.7,180.6,97.8,180.8,96.8,180.8L96.8,180.8z"/>
			</g>
			<g id="path5013_1_">
				<path inkscape:connector-curvature="0" class="st2" d="M99.4,168.7c5.8,0.9,7.7,8.7,8.4,14.6C102.7,181.6,97.5,178.6,99.4,168.7
					z"/>
				<path class="st4" d="M107.9,183.2c-0.6-6-2.6-13.9-8.5-14.8l0,0l-0.2,0l0,0.2c-0.3,1.5-0.4,2.8-0.4,4l0,0c0,3.5,1.2,6,2.8,7.6
					l0,0c1.7,1.7,3.9,2.6,6.1,3.3l0,0l0.3,0.1L107.9,183.2L107.9,183.2z M107.5,182.9c-2.1-0.7-4.1-1.6-5.7-3.2l0,0
					c-1.6-1.6-2.7-3.8-2.7-7.1l0,0c0-1.1,0.1-2.3,0.4-3.6l0,0C104.9,170,106.8,177.1,107.5,182.9L107.5,182.9z M99.6,168.8l-0.2-0.1
					L99.6,168.8L99.6,168.8z"/>
			</g>
			<g id="path5015_1_">
				<path inkscape:connector-curvature="0" class="st2" d="M91.9,190.9c3.6-7,8.9-5.9,14.8-1.4C102.1,196.5,97,194.7,91.9,190.9
					L91.9,190.9z"/>
				<path class="st4" d="M106.8,189.7l0.2-0.3l-0.2-0.2c-3-2.2-5.8-3.6-8.3-3.6l0,0c-2.6,0-4.9,1.5-6.8,5.1l0,0l0.2,0.2l-0.2-0.2
					l-0.1,0.3l0.2,0.2c2.6,1.9,5.3,3.4,7.9,3.4l0,0c0,0,0,0,0,0l0,0C102.1,194.6,104.6,193.2,106.8,189.7L106.8,189.7z M99.6,194
					c-2.4,0-4.9-1.3-7.5-3.2l0,0c1.8-3.3,3.9-4.6,6.3-4.6l0,0c2.4,0,5.1,1.3,7.9,3.4l0,0C104.2,192.8,102,194,99.6,194L99.6,194z"/>
			</g>
			<g id="path5017_1_">
				<path inkscape:connector-curvature="0" class="st2" d="M96.2,179.2c5.3-3.1,12.9,1.3,13.3,9.1
					C104.1,190.5,95.8,188.5,96.2,179.2z"/>
				<path class="st4" d="M109.6,188.5l0.2-0.1l0-0.2c-0.4-6.3-5.2-10.3-9.8-10.4l0,0c-1.3,0-2.6,0.3-3.8,1l0,0l0.1,0.3l0.2,0l-0.2,0
					l-0.1-0.3L96,179l0,0.2c0,0.2,0,0.4,0,0.6l0,0c0,3.4,1.2,5.9,3,7.4l0,0c1.8,1.5,4.1,2.2,6.3,2.2l0,0
					C106.8,189.4,108.3,189.1,109.6,188.5L109.6,188.5z M105.3,188.8c-2.2,0-4.5-0.7-6.2-2.1l0,0c-1.7-1.5-2.8-3.7-2.8-6.9l0,0
					c0-0.1,0-0.3,0-0.4l0,0c1.1-0.6,2.3-0.9,3.5-0.9l0,0c4.4,0,9,3.9,9.4,9.6l0,0C108.1,188.5,106.7,188.8,105.3,188.8L105.3,188.8z
					"/>
			</g>
			<g id="path5019_1_">
				<path inkscape:connector-curvature="0" class="st2" d="M106.5,171.5c4.4,3.3,9.1,6.1,8.7,16.9
					C106.1,191.7,106.5,180.4,106.5,171.5z"/>
				<path class="st4" d="M112.3,189.3c0.9,0,1.8-0.2,2.9-0.6l0,0l0.1,0l0-0.2c0-0.5,0-1,0-1.4l0,0c0-9.9-4.6-12.7-8.8-15.8l0,0
					l-0.3-0.2l0,0.5c0,3.9-0.1,8.3,0.6,11.8l0,0C107.6,186.7,109.2,189.3,112.3,189.3L112.3,189.3
					C112.3,189.3,112.3,189.3,112.3,189.3L112.3,189.3z M112.3,188.7c-2.9,0-4.3-2.3-5-5.6l0,0c-0.7-3.2-0.6-7.4-0.6-11.2l0,0
					c4.2,3.1,8.3,5.8,8.3,15.1l0,0c0,0.4,0,0.8,0,1.2l0,0C114,188.6,113.1,188.7,112.3,188.7L112.3,188.7z"/>
			</g>
			<g id="path5021_1_">
				<path inkscape:connector-curvature="0" class="st2" d="M99.6,196.9c6.1,1.6,11.7,0.2,15.6-8.1
					C109.8,185.1,103.4,187.6,99.6,196.9z"/>
				<path class="st4" d="M115.3,188.9c0-0.1,0-0.2,0-0.2l0,0c0-0.1-0.1-0.1-0.1-0.2l0,0c-1.6-1.1-3.3-1.6-4.9-1.6l0,0
					c-4.1,0-8.2,3.2-10.9,9.9l0,0l0.2,0.2l-0.2-0.2c0,0.1,0,0.2,0,0.3l0,0c0,0.1,0.1,0.1,0.1,0.2l0,0c1.4,0.4,2.8,0.6,4.2,0.6l0,0
					c0,0,0,0,0,0l0,0C108.2,197.7,112.3,195.4,115.3,188.9L115.3,188.9z M103.7,197.2c-1.2,0-2.5-0.2-3.8-0.5l0,0
					c2.7-6.2,6.5-9.2,10.4-9.2l0,0c1.5,0,3.1,0.5,4.6,1.4l0,0C111.9,195,108.1,197.2,103.7,197.2L103.7,197.2z"/>
			</g>
		</g>
	</g>
	<g id="path5023_1_">
		<path inkscape:connector-curvature="0" class="st2" d="M322,292.4l5.7-9"/>
		<path class="st4" d="M321.6,293.1c-0.2-0.3-0.2-0.9,0-1.2l0,0l5.7-9c0.2-0.3,0.6-0.4,0.8,0l0,0c0.2,0.3,0.2,0.9,0,1.2l0,0l-5.7,9
			c-0.1,0.2-0.3,0.3-0.4,0.3l0,0C321.8,293.3,321.7,293.2,321.6,293.1L321.6,293.1z"/>
	</g>
	<g id="path5025_1_">
		<path inkscape:connector-curvature="0" class="st2" d="M278.5,344.4h-12.7c-11.7-12.7-16.4-27.3-36.3-28.5
			c-7.3-0.5-14,9.7-15.4,14.3c9.5-7.7,16.9-5.1,27.6,12.6c5.2,8.5,11.9,13.8,20.9,14.7C274.5,358.7,274.3,349.8,278.5,344.4z"/>
		<path class="st4" d="M264.6,358.4c-0.7,0-1.4,0-2.2-0.1l0,0c-9.1-0.9-16-6.3-21.2-15l0,0c-7-11.6-12.5-16.5-17.9-16.5l0,0
			c-2.9,0-5.8,1.4-9.1,4l0,0l-1.5,1.2l0.7-2.3c1.5-4.8,8-14.7,15.5-14.8l0,0c0.2,0,0.3,0,0.5,0l0,0c20,1.3,25,16.1,36.4,28.5l0,0
			h12.5v0.9v-0.9h1.5l-1.1,1.5c-1.8,2.4-2.8,5.6-4.6,8.4l0,0C272.4,356.3,269.7,358.4,264.6,358.4L264.6,358.4
			C264.7,358.4,264.7,358.4,264.6,358.4L264.6,358.4z M242.1,342.2c5.1,8.4,11.6,13.5,20.5,14.4l0,0c0.7,0.1,1.4,0.1,2.1,0.1l0,0
			c4.9,0,7.1-1.9,8.8-4.4l0,0c1.4-2.1,2.3-4.7,3.7-7l0,0h-11.5l-0.1-0.2c-11.9-12.9-16.3-27.1-36-28.4l0,0c-0.2,0-0.3,0-0.5,0l0,0
			c-5.6-0.1-11,6.7-13.4,11.3l0,0c2.7-1.8,5.2-2.8,7.8-2.8l0,0C229.3,325.2,235,330.6,242.1,342.2L242.1,342.2z"/>
	</g>
	<g id="path3948_2_">
		<path class="st2" d="M278.7,196.9c-9-3.3-16.7-6.4-25-6.4l0,0c-9.6,0-14,2.4-19,5.1l0,0c-5,2.7-10.7,5.8-20.5,5.8l0,0
			c-8.3,0-14.5-3.1-20.6-5.9l0,0c-6.2-2.8-12.4-5.4-22-5.4l0,0c-8.6,0-15.7,3-24.3,6.2l0,0c-8.6,3.2-18.6,6.6-32.3,6.6l0,0v-9.8
			c12.9,0,22-3.1,30.5-6.2l0,0c8.4-3.2,16.3-6.6,26.1-6.6l0,0c10.5,0,17.9,3,24.1,5.8l0,0c6.3,2.9,11.4,5.4,18.4,5.4l0,0
			c8.9-0.1,12.9-2.4,18-5.1l0,0c5-2.8,11-5.8,21.5-5.8l0,0c9.5,0,17.9,3.5,26.7,6.7l0,0c8.9,3.3,18.4,6.4,30.8,6.4l0,0
			c0.8,0,1.5,0,2.3,0l0,0l0.2,9.8c-0.8,0-1.7,0-2.5,0l0,0C298,203.6,287.7,200.2,278.7,196.9L278.7,196.9z"/>
	</g>
	<g id="path3950_2_">
		<path class="st2" d="M279.2,216.5c-9-3.3-16.7-6.4-25-6.4l0,0c-9.6,0.1-14,2.4-19,5.1l0,0c-5,2.7-10.7,5.8-20.5,5.8l0,0
			c-8.3,0-14.5-3.1-20.6-5.9l0,0c-6.2-2.8-12.4-5.4-22-5.4l0,0c-8.6,0-15.7,3-24.3,6.2l0,0c-8.6,3.2-18.6,6.6-32.3,6.6l0,0v-9.8
			c12.9,0,22-3.1,30.5-6.2l0,0c8.4-3.2,16.3-6.6,26.1-6.6l0,0c10.5,0,17.9,3,24.1,5.9l0,0c6.3,2.9,11.4,5.4,18.4,5.4l0,0
			c8.9-0.1,12.9-2.4,18-5.1l0,0c5-2.8,11-5.8,21.5-5.8l0,0c9.5,0,17.9,3.5,26.7,6.7l0,0c8.9,3.3,18.4,6.4,30.8,6.4l0,0
			c0.8,0,1.5,0,2.3,0l0,0l0.2,9.8c-0.8,0-1.7,0-2.5,0l0,0C298.5,223.2,288.2,219.8,279.2,216.5L279.2,216.5z"/>
	</g>
	<g id="path3952_2_">
		<path class="st2" d="M278.1,236.1c-9-3.3-16.7-6.4-24.9-6.4l0,0c-9.6,0.1-14,2.4-19,5.1l0,0c-5,2.7-10.7,5.8-20.5,5.8l0,0
			c-8.3,0-14.5-3.1-20.6-5.9l0,0c-6.2-2.8-12.4-5.4-22-5.4l0,0c-7.9,0-14.6,2.5-22.4,5.5l0,0c-7.8,2.9-16.6,6.2-28.3,7.1l0,0
			l-0.4-9.8c10.9-0.8,19.1-3.8,26.8-6.7l0,0c7.7-2.9,15.2-5.8,24.2-5.8l0,0c10.5,0,17.9,3,24.1,5.9l0,0c6.3,2.9,11.4,5.4,18.4,5.4
			l0,0c8.9-0.1,12.9-2.4,18-5.1l0,0c5-2.8,11-5.8,21.5-5.8l0,0c9.5,0,17.8,3.5,26.7,6.7l0,0c8.9,3.3,18.4,6.4,30.7,6.4l0,0l0,9.8
			C297.3,242.8,287,239.4,278.1,236.1L278.1,236.1z M120.4,242C120.4,242,120.4,242,120.4,242L120.4,242L120.4,242L120.4,242
			L120.4,242z"/>
	</g>
	<g id="path3954_2_">
		<path class="st2" d="M276.8,255c-8.1-3-15.2-5.6-22.9-5.6l0,0c-9.6,0.1-14,2.4-19,5.1l0,0c-5,2.7-10.7,5.8-20.5,5.8l0,0
			c-8.3,0-14.5-3.1-20.6-5.9l0,0c-6.1-2.8-12.4-5.4-22-5.4l0,0c-7.6,0-14,2.3-21.4,5.1l0,0c-7.3,2.8-15.6,6-26.3,7.2l0,0l-0.6-9.7
			c10-1.1,17.6-4.1,25-6.9l0,0c7.4-2.8,14.6-5.5,23.2-5.5l0,0c10.5,0,17.9,3,24.1,5.9l0,0c6.3,2.9,11.4,5.4,18.4,5.4l0,0
			c8.9-0.1,12.9-2.4,18-5.1l0,0c5-2.8,11-5.8,21.5-5.8l0,0c8.8,0,16.5,3,24.6,6l0,0c8.1,3,16.6,6.1,27.3,7l0,0l-0.4,9.8
			C294.1,261.3,284.9,258,276.8,255L276.8,255z"/>
	</g>
	<g id="path3956_2_">
		<path class="st2" d="M274.5,273.6c-7-2.6-13.3-4.6-20-4.6l0,0c-9.6,0-14,2.4-19,5.1l0,0c-5,2.7-10.7,5.8-20.5,5.8l0,0
			c-8.3,0-14.5-3.1-20.6-5.9l0,0c-6.1-2.8-12.4-5.4-22-5.4l0,0c-6.7,0-12.5,1.8-18.8,4.2l0,0c-6.3,2.3-13.2,5.2-21.7,7l0,0l-1-9.7
			c8-1.6,14.5-4.4,21-6.8l0,0c6.5-2.4,13-4.5,20.6-4.5l0,0c10.5,0,17.9,3,24.1,5.9l0,0c6.3,2.9,11.4,5.4,18.4,5.4l0,0
			c8.9-0.1,12.9-2.4,18-5.1l0,0c5-2.8,11-5.8,21.5-5.8l0,0c7.7,0,14.7,2.3,21.8,4.9l0,0c7.1,2.6,14.3,5.5,22.9,7.1l0,0l-0.9,9.7
			C289.1,279.2,281.5,276.1,274.5,273.6L274.5,273.6z"/>
	</g>
</g>
<g>
	<path d="M454.1,161.4V90.3h21c6.3,0,11.9,1.4,16.7,4.2c4.9,2.8,8.6,6.8,11.3,11.9c2.7,5.1,4,11,4,17.7v3.6c0,6.7-1.3,12.7-4,17.8
		c-2.7,5.1-6.5,9.1-11.5,11.8c-5,2.8-10.7,4.2-17.1,4.2H454.1z M466.4,100.2v51.3h8.1c6.5,0,11.5-2,14.9-6.1
		c3.5-4.1,5.2-9.9,5.3-17.5v-4c0-7.7-1.7-13.6-5-17.7c-3.4-4.1-8.2-6.1-14.6-6.1H466.4z"/>
	<path d="M536,161.4h-12.3V90.3H536V161.4z"/>
	<path d="M609.2,152.2c-2.6,3.4-6.1,5.9-10.7,7.6c-4.6,1.7-9.7,2.6-15.5,2.6c-6,0-11.2-1.4-15.8-4.1c-4.6-2.7-8.1-6.6-10.6-11.6
		c-2.5-5-3.8-10.9-3.9-17.6v-5.6c0-10.7,2.6-19.1,7.7-25.2c5.1-6,12.3-9.1,21.5-9.1c7.9,0,14.2,2,18.9,5.9c4.7,3.9,7.5,9.6,8.4,16.9
		H597c-1.4-8.6-6.3-12.8-14.9-12.8c-5.5,0-9.7,2-12.6,6c-2.9,4-4.4,9.8-4.5,17.5v5.5c0,7.7,1.6,13.6,4.9,17.9s7.7,6.4,13.5,6.4
		c6.3,0,10.8-1.4,13.5-4.3v-13.9h-14.7v-9.4h27V152.2z"/>
	<path d="M639.3,161.4H627V90.3h12.3V161.4z"/>
	<path d="M708,100.2h-22.2v61.2h-12.3v-61.2h-22v-10H708V100.2z"/>
	<path d="M754.8,144.8h-27.5l-5.8,16.6h-12.8l26.9-71.1h11.1l26.9,71.1h-12.9L754.8,144.8z M730.7,134.9h20.6L741,105.4L730.7,134.9
		z"/>
	<path d="M797.4,151.5h32.3v9.9h-44.6V90.3h12.4V151.5z"/>
	<path d="M867.6,161.4V90.3h21c6.3,0,11.9,1.4,16.7,4.2c4.9,2.8,8.6,6.8,11.3,11.9c2.7,5.1,4,11,4,17.7v3.6c0,6.7-1.3,12.7-4,17.8
		c-2.7,5.1-6.5,9.1-11.5,11.8c-5,2.8-10.7,4.2-17.1,4.2H867.6z M880,100.2v51.3h8.1c6.5,0,11.5-2,14.9-6.1c3.5-4.1,5.2-9.9,5.3-17.5
		v-4c0-7.7-1.7-13.6-5-17.7c-3.4-4.1-8.2-6.1-14.6-6.1H880z"/>
	<path d="M949.5,161.4h-12.3V90.3h12.3V161.4z"/>
	<path d="M1008.9,144.8h-27.5l-5.8,16.6h-12.8l26.9-71.1h11.1l26.9,71.1h-12.9L1008.9,144.8z M984.9,134.9h20.6l-10.3-29.5
		L984.9,134.9z"/>
	<path d="M1065.4,134h-13.8v27.4h-12.4V90.3h25c8.2,0,14.5,1.8,19,5.5c4.5,3.7,6.7,9,6.7,16c0,4.8-1.1,8.7-3.4,12
		c-2.3,3.2-5.5,5.7-9.6,7.4l16,29.6v0.6h-13.2L1065.4,134z M1051.6,124.1h12.7c4.2,0,7.4-1.1,9.8-3.2c2.3-2.1,3.5-5,3.5-8.6
		c0-3.8-1.1-6.8-3.2-8.8c-2.2-2.1-5.4-3.2-9.7-3.2h-13V124.1z"/>
	<path d="M1126,124l16.4-33.7h13.7l-23.8,44.9v26.2h-12.4v-26.2l-23.9-44.9h13.7L1126,124z"/>
</g>
<g>
	<path d="M553.8,293.3c0-4.4-1.6-7.9-4.7-10.3c-3.1-2.4-8.8-4.8-16.9-7.3c-8.2-2.5-14.6-5.2-19.5-8.2c-9.2-5.8-13.8-13.3-13.8-22.7
		c0-8.2,3.3-14.9,10-20.2c6.6-5.3,15.3-7.9,25.9-7.9c7,0,13.3,1.3,18.8,3.9c5.5,2.6,9.8,6.3,13,11.1c3.1,4.8,4.7,10.1,4.7,16h-17.5
		c0-5.3-1.7-9.4-5-12.4c-3.3-3-8.1-4.5-14.2-4.5c-5.7,0-10.2,1.2-13.4,3.7c-3.2,2.5-4.8,5.9-4.8,10.3c0,3.7,1.7,6.8,5.1,9.3
		c3.4,2.5,9.1,4.9,17,7.2c7.9,2.3,14.2,5,19,8c4.8,3,8.3,6.4,10.5,10.3c2.2,3.9,3.3,8.4,3.3,13.6c0,8.4-3.2,15.1-9.7,20.1
		c-6.5,5-15.2,7.5-26.3,7.5c-7.3,0-14.1-1.4-20.2-4.1c-6.1-2.7-10.9-6.5-14.3-11.2c-3.4-4.8-5.1-10.3-5.1-16.7h17.6
		c0,5.7,1.9,10.2,5.7,13.3c3.8,3.2,9.2,4.7,16.3,4.7c6.1,0,10.7-1.2,13.8-3.7C552.3,300.6,553.8,297.3,553.8,293.3z"/>
	<path d="M624.8,266.1l23.3-48h19.5l-33.9,63.9v37.2H616v-37.2l-34-63.9h19.5L624.8,266.1z"/>
	<path d="M735.3,293.3c0-4.4-1.6-7.9-4.7-10.3c-3.1-2.4-8.8-4.8-16.9-7.3c-8.2-2.5-14.6-5.2-19.5-8.2c-9.2-5.8-13.8-13.3-13.8-22.7
		c0-8.2,3.3-14.9,10-20.2c6.6-5.3,15.3-7.9,25.9-7.9c7,0,13.3,1.3,18.8,3.9c5.5,2.6,9.8,6.3,13,11.1c3.1,4.8,4.7,10.1,4.7,16h-17.5
		c0-5.3-1.7-9.4-5-12.4c-3.3-3-8.1-4.5-14.2-4.5c-5.7,0-10.2,1.2-13.4,3.7c-3.2,2.5-4.8,5.9-4.8,10.3c0,3.7,1.7,6.8,5.1,9.3
		c3.4,2.5,9.1,4.9,17,7.2c7.9,2.3,14.2,5,19,8c4.8,3,8.3,6.4,10.5,10.3c2.2,3.9,3.3,8.4,3.3,13.6c0,8.4-3.2,15.1-9.7,20.1
		c-6.5,5-15.2,7.5-26.3,7.5c-7.3,0-14.1-1.4-20.2-4.1c-6.1-2.7-10.9-6.5-14.3-11.2c-3.4-4.8-5.1-10.3-5.1-16.7h17.6
		c0,5.7,1.9,10.2,5.7,13.3c3.8,3.2,9.2,4.7,16.3,4.7c6.1,0,10.7-1.2,13.8-3.7C733.8,300.6,735.3,297.3,735.3,293.3z"/>
	<path d="M846.5,232.3h-31.6v87h-17.4v-87h-31.3v-14.2h80.3V232.3z"/>
	<path d="M923.9,274.2h-41.6v31.1h48.6v14h-66.2V218.1h65.7v14.2h-48.1v27.9h41.6V274.2z"/>
	<path d="M973,218.1l29.2,77.6l29.1-77.6h22.7v101.2h-17.5V286l1.7-44.6l-29.9,78h-12.6L966,241.4l1.7,44.5v33.4h-17.5V218.1H973z"
		/>
</g>
</svg>
