<svg id="svg3711" xmlns="http://www.w3.org/2000/svg" viewBox="0 0 300.26 309.1"><defs><style>.cls-1{fill:#fff;}</style></defs><title>white-logo</title><g id="path4219"><path class="cls-1" d="M130.68,237.67" transform="translate(-91.69 -41.47)"/><path class="cls-1" d="M130.68,237.67" transform="translate(-91.69 -41.47)"/></g><g id="g4798"><g id="g4503"><g id="path4181"><path class="cls-1" d="M135.27,146.29l-1.72,22.48" transform="translate(-91.69 -41.47)"/><path class="cls-1" d="M133.51,169.26c-.18,0-.31-.27-.28-.54h0L135,146.23c0-.27.18-.47.36-.43h0c.18,0,.3.27.28.54h0l-1.72,22.49c0,.25-.16.43-.32.43h0Z" transform="translate(-91.69 -41.47)"/></g><g id="path4183"><path class="cls-1" d="M138.81,167.67l-2.17,20.8" transform="translate(-91.69 -41.47)"/><path class="cls-1" d="M136.59,189c-.18,0-.3-.29-.27-.56h0l2.17-20.8c0-.27.19-.45.37-.41h0a.52.52,0,0,1,.27.56h0L137,188.54c0,.24-.16.42-.32.42h0Z" transform="translate(-91.69 -41.47)"/></g><g id="path4191"><path class="cls-1" d="M119.85,150.94,119,173" transform="translate(-91.69 -41.47)"/><path class="cls-1" d="M119,173.46c-.18,0-.32-.25-.31-.52h0l.81-22c0-.28.17-.48.35-.47h0c.18,0,.31.25.31.52h0l-.82,22c0,.26-.15.46-.32.46h0Z" transform="translate(-91.69 -41.47)"/></g><g id="path4189"><path class="cls-1" d="M112.27,162.07l1,23.18" transform="translate(-91.69 -41.47)"/><path class="cls-1" d="M113,185.29l-1-23.18c0-.28.12-.51.3-.53h0c.18,0,.34.19.35.46h0l1,23.18c0,.27-.13.51-.31.53h0c-.17,0-.31-.21-.32-.46Z" transform="translate(-91.69 -41.47)"/></g><g id="path4179"><path class="cls-1" d="M126.7,166.23l2.84-34.82" transform="translate(-91.69 -41.47)"/><path class="cls-1" d="M126.66,166.72c-.18,0-.31-.28-.29-.55h0l2.84-34.81c0-.27.19-.47.37-.43h0c.17,0,.3.27.28.54h0L127,166.29c0,.25-.16.43-.32.43h0Z" transform="translate(-91.69 -41.47)"/></g><g id="path4185"><path class="cls-1" d="M140.45,180.54l-2.92,22.12" transform="translate(-91.69 -41.47)"/><path class="cls-1" d="M137.47,203.14c-.18,0-.29-.31-.26-.58h0l2.92-22.12c0-.27.2-.44.38-.39h0c.18,0,.29.31.26.58h0l-2.92,22.12c0,.24-.17.4-.32.4h-.06Z" transform="translate(-91.69 -41.47)"/></g><g id="path4187"><path class="cls-1" d="M112.53,204.61,109,190.74" transform="translate(-91.69 -41.47)"/><path class="cls-1" d="M112.23,204.78l-3.52-13.86a.58.58,0,0,1,.19-.63h0c.17-.1.35,0,.42.28h0l3.52,13.87a.59.59,0,0,1-.19.63h0a.27.27,0,0,1-.12,0h0c-.13,0-.25-.12-.3-.32Z" transform="translate(-91.69 -41.47)"/></g></g><g id="g4461"><g id="path4177"><path class="cls-1" d="M133.8,166.65c2.85,13.53-3.05,28.89-6.37,33.44C127.57,189.7,127.59,170.44,133.8,166.65Z" transform="translate(-91.69 -41.47)"/><path class="cls-1" d="M127.11,200.08a184.45,184.45,0,0,1,.91-19.27h0c.81-6.64,2.36-12.58,5.65-14.62h0l.33-.2.11.51a37.81,37.81,0,0,1,.77,7.78h0c0,11.43-4.45,22.33-7.23,26.17h0l-.56.77,0-1.14Zm1.55-19.1a175,175,0,0,0-.89,17.91h0c2.65-4.23,6.47-14.34,6.46-24.61h0a37.79,37.79,0,0,0-.64-7h0c-2.7,2-4.18,7.36-4.93,13.66Z" transform="translate(-91.69 -41.47)"/></g><g id="path4169"><path class="cls-1" d="M136.77,185.82c-9.32,3.66-7.49,14.91-9.2,27.73C132.13,207.6,138.05,204.67,136.77,185.82Z" transform="translate(-91.69 -41.47)"/><path class="cls-1" d="M127.25,213.45c.85-6.35.81-12.36,1.75-17.34h0c.93-5,2.94-8.93,7.69-10.77h0l.37-.14,0,.57c.12,1.77.17,3.41.17,4.94h0c0,14.76-5.44,17.93-9.49,23.21h0l-.72.94.19-1.41Zm2.38-17.07c-.84,4.43-.88,10-1.57,15.91h0c4-4.94,8.54-8,8.56-21.59h0c0-1.31,0-2.73-.13-4.26h0c-4.3,1.87-6,5.31-6.86,9.94Zm6.82-10.52.32-.05-.32.05Z" transform="translate(-91.69 -41.47)"/></g><g id="path4173"><path class="cls-1" d="M119.31,169.7c-5.49,9.42,0,22,2.71,30.39C125.12,189.44,125.53,175.5,119.31,169.7Z" transform="translate(-91.69 -41.47)"/><path class="cls-1" d="M121.72,200.3c-1.82-5.77-5.07-13.6-5.08-21.18h0a19,19,0,0,1,2.42-9.74h0l.18-.31.24.22c3.63,3.37,5.06,9.42,5.06,15.91h0a55.14,55.14,0,0,1-2.23,15.09h0l-.28,1-.31-1Zm-4.43-21.17c0,6.76,2.83,14.07,4.7,19.77h0a53.59,53.59,0,0,0,1.9-13.7h0c0-6.14-1.31-11.67-4.52-14.85h0a17.77,17.77,0,0,0-2.08,8.78Zm1.84-9,.18-.41-.18.41Z" transform="translate(-91.69 -41.47)"/></g><g id="path4171"><path class="cls-1" d="M113.21,183.37c.16,14.9,2.58,27.2,10.29,33.44C122.83,199.43,120.36,186.14,113.21,183.37Z" transform="translate(-91.69 -41.47)"/><path class="cls-1" d="M123.35,217.24c-7.86-6.36-10.31-18.91-10.46-33.86h0v-.65l.42.16c7.4,2.93,9.85,16.5,10.53,33.89h0l0,.88-.51-.42Zm-.21-1.29c-.7-16.58-3.15-29-9.59-31.93h0c.22,14.21,2.55,25.78,9.59,31.93Zm-10-32.11.09-.47-.09.47Z" transform="translate(-91.69 -41.47)"/></g><g id="path4175"><path class="cls-1" d="M126.89,163.18c-6.19,10-3.88,25.95-.14,33.85C128.62,188.9,131.84,171.69,126.89,163.18Z" transform="translate(-91.69 -41.47)"/><path class="cls-1" d="M126.49,197.31a45.55,45.55,0,0,1-3.76-18.37h0c0-5.69,1.08-11.49,3.92-16.09h0l.25-.4.24.41c2,3.47,2.7,8.28,2.7,13.29h0a99.72,99.72,0,0,1-2.78,21h0l-.2.9-.37-.78Zm-3.11-18.38a44.92,44.92,0,0,0,3.28,17h0a97.39,97.39,0,0,0,2.53-19.79h0c0-4.67-.62-9.05-2.31-12.22h0c-2.52,4.31-3.5,9.67-3.5,15Zm3.26-15.43.25-.32-.25.32Z" transform="translate(-91.69 -41.47)"/></g><g id="path4167"><path class="cls-1" d="M125,184c4.62,11.07,5.5,26.58.28,37.73C119.66,211.54,121.2,195,125,184Z" transform="translate(-91.69 -41.47)"/><path class="cls-1" d="M125,222c-2.67-4.86-3.75-11.11-3.75-17.5h0a66.25,66.25,0,0,1,3.45-20.77h0L125,183l.3.73A53.76,53.76,0,0,1,129.16,204h0a42.84,42.84,0,0,1-3.63,18h0l-.24.52L125,222Zm-3.1-17.5c0,6,1,11.8,3.34,16.36h0A42,42,0,0,0,128.51,204h0A52.88,52.88,0,0,0,125,185h0a65.13,65.13,0,0,0-3.11,19.53Z" transform="translate(-91.69 -41.47)"/></g><g id="path4165"><path class="cls-1" d="M124.86,228.23a30,30,0,0,1,12.86-27.53C137.86,221,131.94,230.75,124.86,228.23Z" transform="translate(-91.69 -41.47)"/><path class="cls-1" d="M127,229.11a6.53,6.53,0,0,1-2.22-.41h0l.07-.47.32-.09-.32.09-.07.47-.22-.07,0-.32a25.58,25.58,0,0,1-.17-3h0a30.7,30.7,0,0,1,13.22-25h0l.45-.3v1.45h0c0,8.94-1.18,15.83-3.16,20.52h0c-2,4.69-4.75,7.18-7.87,7.18h0a0,0,0,0,1,0,0Zm0-1c2.88,0,5.45-2.25,7.34-6.73h0c1.87-4.46,3.05-11.16,3.05-19.94h0A29.74,29.74,0,0,0,125,225.27h0a23.92,23.92,0,0,0,.13,2.55h0a5.85,5.85,0,0,0,1.86.31Z" transform="translate(-91.69 -41.47)"/></g><g id="path4163"><path class="cls-1" d="M127.26,228.64c-10.2-.81-13.4-11.74-15-25.49C119.51,206.48,124.33,215,127.26,228.64Z" transform="translate(-91.69 -41.47)"/><path class="cls-1" d="M127.24,229.12c-10.4-.79-13.73-12.11-15.31-25.89h0a.7.7,0,0,1,.1-.46h0a.26.26,0,0,1,.31-.1h0c7.39,3.39,12.29,12.06,15.23,25.81h0l-.31.15,0-.49,0,.49.31-.15a.69.69,0,0,1,0,.45h0a.3.3,0,0,1-.26.19h0Zm-.44-1c-2.86-12.84-7.39-20.84-14.13-24.23h0C114.3,217,117.36,227,126.8,228.09Z" transform="translate(-91.69 -41.47)"/></g></g></g><g id="g4817"><g id="g4538"><g id="path4199"><path class="cls-1" d="M92,229.73l10.56,21.2" transform="translate(-91.69 -41.47)"/><path class="cls-1" d="M102.32,251.22,91.76,230a.68.68,0,0,1,.06-.69h0c.15-.16.35-.12.46.1h0l10.56,21.21a.64.64,0,0,1-.07.68h0a.23.23,0,0,1-.19.1h0a.3.3,0,0,1-.26-.2Z" transform="translate(-91.69 -41.47)"/></g><g id="g4512"><g id="path4197"><path class="cls-1" d="M94.7,213.77l6.77,20" transform="translate(-91.69 -41.47)"/><path class="cls-1" d="M101.18,234l-6.77-20a.63.63,0,0,1,.14-.67h0c.16-.12.36,0,.44.22h0l6.77,20a.63.63,0,0,1-.14.66h0a.24.24,0,0,1-.15.06h0a.33.33,0,0,1-.29-.27Z" transform="translate(-91.69 -41.47)"/></g><g id="path4195"><path class="cls-1" d="M106.47,221l-13-31" transform="translate(-91.69 -41.47)"/><path class="cls-1" d="M106.2,221.26l-13-31a.63.63,0,0,1,.1-.67h0c.15-.15.35-.08.45.15h0l13,31a.67.67,0,0,1-.1.68h0a.29.29,0,0,1-.18.08h0a.31.31,0,0,1-.27-.23Z" transform="translate(-91.69 -41.47)"/></g><g id="path4201"><path class="cls-1" d="M103.6,261.32l10.84,6.94" transform="translate(-91.69 -41.47)"/><path class="cls-1" d="M114.31,268.71l-10.84-6.94a.6.6,0,0,1-.17-.64h0c.07-.25.26-.37.43-.26h0l10.83,6.93a.61.61,0,0,1,.17.65h0c0,.18-.17.29-.3.29h0a.18.18,0,0,1-.12,0Z" transform="translate(-91.69 -41.47)"/></g><g id="path4193"><path class="cls-1" d="M112.12,212.55l-6.76-17.13" transform="translate(-91.69 -41.47)"/><path class="cls-1" d="M111.84,212.8l-6.76-17.13a.64.64,0,0,1,.11-.67h0c.15-.14.35-.06.45.17h0l6.77,17.13a.63.63,0,0,1-.12.67h0a.23.23,0,0,1-.16.07h0c-.12,0-.22-.09-.29-.24Z" transform="translate(-91.69 -41.47)"/></g><g id="path4221"><path class="cls-1" d="M122.22,225.69,119,212.64" transform="translate(-91.69 -41.47)"/><path class="cls-1" d="M121.91,225.87l-3.24-13.05a.59.59,0,0,1,.19-.64h0c.17-.09.35,0,.42.29h0l3.25,13.05a.61.61,0,0,1-.19.63h0a.19.19,0,0,1-.12,0h0c-.13,0-.26-.13-.31-.32Z" transform="translate(-91.69 -41.47)"/></g><g id="path4255"><path class="cls-1" d="M130.62,238.05l-5.09-14.21" transform="translate(-91.69 -41.47)"/><path class="cls-1" d="M130.33,238.28l-5.09-14.21a.63.63,0,0,1,.13-.66h0c.16-.13.36,0,.45.19h0l5.09,14.22a.63.63,0,0,1-.14.66h0a.24.24,0,0,1-.15.06h0c-.12,0-.23-.09-.29-.26Z" transform="translate(-91.69 -41.47)"/></g></g></g><g id="g4567"><g id="path4157-1"><path class="cls-1" d="M100.49,231.14c6.07-3.18,12.34-.45,13.54,20C105.81,248.06,100.42,241.26,100.49,231.14Z" transform="translate(-91.69 -41.47)"/><path class="cls-1" d="M114,251.6c-8.23-3-13.79-9.94-13.79-20.27h0v-.21h0v-.33l.21-.11a8.9,8.9,0,0,1,4.1-1.15h0c4.81,0,9,5.54,9.87,21.55h0l0,.68-.44-.16Zm-.29-1.13c-1-15.3-4.85-19.93-9.18-20h0a8.3,8.3,0,0,0-3.67,1h0c.06,9.43,5,15.89,12.85,19Z" transform="translate(-91.69 -41.47)"/></g><g id="path4161-0"><path class="cls-1" d="M111.86,211.77c8.71,6.7,11.53,23.11,9.57,33.78C114,241.36,109.1,225.58,111.86,211.77Z" transform="translate(-91.69 -41.47)"/><path class="cls-1" d="M121.32,246c-6.14-3.5-10.55-14.62-10.56-26.18h0a42,42,0,0,1,.79-8.21h0l.11-.56.35.27c7.11,5.48,10.34,17.22,10.34,27.24h0a39.93,39.93,0,0,1-.6,7.11h0l-.09.51-.34-.18Zm-9.91-26.18c0,11,4.16,21.56,9.8,25.06h0a39.34,39.34,0,0,0,.49-6.32h0c0-9.56-3-20.73-9.64-26.09h0a41.24,41.24,0,0,0-.65,7.35Z" transform="translate(-91.69 -41.47)"/></g><g id="path4153-5"><path class="cls-1" d="M122.15,224.82C117.33,238,121,250,127.3,261.53,128.37,248.51,130.48,235.21,122.15,224.82Z" transform="translate(-91.69 -41.47)"/><path class="cls-1" d="M127,261.84c-4.3-7.92-7.43-16.06-7.43-24.75h0a36.16,36.16,0,0,1,2.25-12.51h0l.19-.52.31.38c5,6.23,6.32,13.59,6.31,21.18h0c0,5.26-.61,10.65-1,16h0l-.1,1.15-.48-.89Zm-6.78-24.75c0,8,2.79,15.68,6.81,23.23h0c.42-5,1-9.92,1-14.7h0c0-7.27-1.19-14.08-5.77-20h0a34.56,34.56,0,0,0-2,11.5Zm1.68-11.89.21-.38-.21.38Z" transform="translate(-91.69 -41.47)"/></g><g id="path4159-8"><path class="cls-1" d="M104.41,216.46c-1.85,8.85,4.43,28.67,14.08,26.71C116.85,230.7,111.47,218.94,104.41,216.46Z" transform="translate(-91.69 -41.47)"/><path class="cls-1" d="M103.76,220a18.21,18.21,0,0,1,.34-3.68h0l.1-.44.29.11c7.25,2.57,12.66,14.49,14.32,27.09h0l.07.52-.34.07a7.21,7.21,0,0,1-1.37.13h0c-8.08-.07-13.39-14.4-13.41-23.8Zm.66,0a35.88,35.88,0,0,0,3.55,14.8h0c2.26,4.61,5.44,8,9.2,8h0a6,6,0,0,0,.94-.07h0c-1.68-12-6.84-23.11-13.47-25.7h0a17.9,17.9,0,0,0-.22,3Zm-.08-3.05.07-.48-.07.48Z" transform="translate(-91.69 -41.47)"/></g><g id="path4155-9"><path class="cls-1" d="M101.3,248.68c4.46,14.27,13.42,16,22.48,17.53C116.84,255.65,110.31,241.6,101.3,248.68Z" transform="translate(-91.69 -41.47)"/><path class="cls-1" d="M123.74,266.7c-9-1.5-18.19-3.28-22.74-17.81h0l-.13-.43.28-.22a8,8,0,0,1,5-2h0c6.89.06,12.24,11.09,17.87,19.6h0l.65,1-.92-.16Zm-.83-1.13c-5.42-8.44-10.63-18.37-16.77-18.32h0a7.35,7.35,0,0,0-4.41,1.65h0c4.27,13.15,12.52,15.19,21.18,16.67Z" transform="translate(-91.69 -41.47)"/></g><g id="path4151-7"><path class="cls-1" d="M112.13,237.46c8.91,3.92,15.39,12.17,16.39,30.18C118.77,263.51,112.85,254.09,112.13,237.46Z" transform="translate(-91.69 -41.47)"/><path class="cls-1" d="M128.43,268.11c-9.84-4.14-15.92-13.81-16.63-30.62h0l.33,0-.33,0,0-.7.44.2c9,3.92,15.63,12.42,16.62,30.61h0l0,.7-.45-.19Zm-.28-1.14c-1.12-17-7.18-24.89-15.66-28.83h0c.85,15.75,6.42,24.68,15.66,28.83Z" transform="translate(-91.69 -41.47)"/></g><g id="path4147"><path class="cls-1" d="M130.41,237.05c-4.76,16.42-3.94,29.74,5,38.55C139.46,257.78,135.64,246.8,130.41,237.05Z" transform="translate(-91.69 -41.47)"/><path class="cls-1" d="M135.24,276c-5.52-5.42-8-12.65-8-21.18h0a65,65,0,0,1,2.9-18h0l.21-.74.34.63c3.72,6.92,6.78,14.56,6.77,24.84h0a63.79,63.79,0,0,1-1.7,14.16h0l-.14.6-.35-.35Zm-7.38-21.18c0,8.05,2.26,14.76,7.39,20h0a62.75,62.75,0,0,0,1.54-13.24h0c0-9.66-2.77-16.9-6.3-23.59h0a63,63,0,0,0-2.63,16.82Zm2.3-17.46.25-.31-.25.31Z" transform="translate(-91.69 -41.47)"/></g><g id="path4149-6"><path class="cls-1" d="M112.4,267c9.23-6.26,17.77-5.48,25.19,6.73C127.23,280.13,118.79,278.06,112.4,267Z" transform="translate(-91.69 -41.47)"/><path class="cls-1" d="M112.15,267.35l.25-.32.13.45-.13-.45-.25.32-.29-.5.41-.27c3.68-2.5,7.26-3.89,10.73-3.89h0c5.3,0,10.3,3.28,14.82,10.74h0l.32.52-.43.26c-3.9,2.4-7.54,3.62-10.91,3.62h0c-5.66,0-10.58-3.49-14.63-10.48Zm14.65,9.5A20.24,20.24,0,0,0,137,273.57h0c-4.35-6.93-9-9.9-14-9.9h0c-3.22,0-6.58,1.25-10.06,3.54h0c3.9,6.48,8.5,9.63,13.86,9.64Z" transform="translate(-91.69 -41.47)"/></g></g></g><g id="path4003"><path class="cls-1" d="M118.76,286.61c59.86-37.06,51.94,37.92,88.56,25.89C183.55,309.57,170.73,231.83,118.76,286.61Z" transform="translate(-91.69 -41.47)"/><path class="cls-1" d="M175.07,295.65c-6.92-9.39-14.24-18.56-27.47-18.58h0c-7.37,0-16.61,2.88-28.62,10.32h0l-.22-.78.22.78-.54-1.48c13.53-14.27,24.49-19.65,33.72-19.65h0c13.2,0,22.72,11,31.08,22.1h0c8.36,11.13,15.63,22.29,24.12,23.3h0l.07,1.67a24.69,24.69,0,0,1-7.71,1.34h0c-11.27,0-17.76-9.66-24.65-19Zm.76-1.26c6.94,9.44,13.1,18.58,23.89,18.58h0a22.09,22.09,0,0,0,4.36-.46h0c-7.68-3.07-14.25-13.17-21.58-22.88h0C174.16,278.57,164.91,268,152.16,268h0c-8,0-17.34,4.13-28.77,15h0c9.81-5.41,17.68-7.61,24.21-7.61h0c13.58,0,21.28,9.62,28.19,19Z" transform="translate(-91.69 -41.47)"/></g><g id="path4005"><path class="cls-1" d="M267.16,348.19c1.72,2.41,2.48,1.63,3.93,0s2.35-3.8-.14-5.71c-9.92-7.63-21.21-29-57.4-29l-43.2-.86-4.6,7.34,46.44-.77C231.32,318.92,250.79,325.21,267.16,348.19Z" transform="translate(-91.69 -41.47)"/><path class="cls-1" d="M266.78,348.81l.38-.62.39-.62c.74,1,1.19,1.31,1.51,1.3h0c.38,0,.9-.45,1.69-1.36h0a4,4,0,0,0,1.16-2.36h0c0-.45-.19-1.11-1.21-1.91h0c-10.12-7.8-21.09-28.82-57.16-28.87h0l-42.95-.86-3.52,5.62,45.11-.74,1.36,0h0c18.77,0,37.89,6.57,54,29.2h0l-.38.62-.38.62c-15.87-22.26-34.63-28.73-53.24-28.74H212.2l-47.77.79,5.68-9.06,43.44.86c36.32,0,47.93,21.59,57.66,29.05h0a4.24,4.24,0,0,1,1.83,3.44h0a5.75,5.75,0,0,1-1.61,3.71h0c-.79.87-1.45,1.67-2.37,1.7h0c-.76,0-1.47-.62-2.28-1.76Z" transform="translate(-91.69 -41.47)"/></g><g id="path4209"><path class="cls-1" d="M136.09,329.62l13.32-.76" transform="translate(-91.69 -41.47)"/><path class="cls-1" d="M135.53,329.66c0-.48.23-.87.54-.88h0l13.32-.77c.31,0,.57.34.58.81h0c0,.47-.23.86-.54.88h0l-13.32.77h0c-.3,0-.55-.36-.56-.81Z" transform="translate(-91.69 -41.47)"/></g><g id="path4207"><path class="cls-1" d="M119.58,310.67l16.79,10" transform="translate(-91.69 -41.47)"/><path class="cls-1" d="M136.16,321.41l-16.79-10a1,1,0,0,1-.32-1.1h0c.12-.44.45-.66.73-.48h0l16.79,9.95a1,1,0,0,1,.32,1.1h0c-.08.34-.3.54-.52.54h0a.42.42,0,0,1-.21-.06Z" transform="translate(-91.69 -41.47)"/></g><g id="path4203"><path class="cls-1" d="M106,267.85l22.47,22.43" transform="translate(-91.69 -41.47)"/><path class="cls-1" d="M128.2,291l-22.47-22.43a1.15,1.15,0,0,1-.16-1.18h0c.17-.39.52-.49.78-.24h0l22.48,22.44a1.13,1.13,0,0,1,.16,1.17h0a.56.56,0,0,1-.48.39h0a.45.45,0,0,1-.31-.15Z" transform="translate(-91.69 -41.47)"/></g><g id="path4213"><path class="cls-1" d="M146.61,281.5,139,270.08" transform="translate(-91.69 -41.47)"/><path class="cls-1" d="M146.21,282.1l-7.58-11.42a1.17,1.17,0,0,1,0-1.2h0a.45.45,0,0,1,.8,0h0L147,280.9a1.17,1.17,0,0,1,0,1.2h0a.51.51,0,0,1-.4.25h0a.5.5,0,0,1-.4-.25Z" transform="translate(-91.69 -41.47)"/></g><g id="path4211"><path class="cls-1" d="M159.69,286.68l-8.78-9.91" transform="translate(-91.69 -41.47)"/><path class="cls-1" d="M159.35,287.36l-8.78-9.91a1.15,1.15,0,0,1-.11-1.19h0c.19-.37.54-.45.79-.17h0L160,286a1.17,1.17,0,0,1,.11,1.19h0a.54.54,0,0,1-.45.34h0a.43.43,0,0,1-.34-.17Z" transform="translate(-91.69 -41.47)"/></g><g id="g4837"><g id="path4205"><path class="cls-1" d="M115.52,291.09,130,304.72" transform="translate(-91.69 -41.47)"/><path class="cls-1" d="M129.85,305.14l-14.51-13.63a.66.66,0,0,1-.1-.68h0c.09-.23.29-.3.45-.16h0L130.2,304.3a.65.65,0,0,1,.1.68h0a.31.31,0,0,1-.27.23h0a.27.27,0,0,1-.18-.07Z" transform="translate(-91.69 -41.47)"/></g><g id="g4034"><g id="path4017"><path class="cls-1" d="M127.72,302.65c8.94-8.9,19.11-.62,19.15,6.48C140.7,312.49,132.39,315.77,127.72,302.65Z" transform="translate(-91.69 -41.47)"/><path class="cls-1" d="M127.43,302.88l.29-.23.18.4-.18-.4-.29.23-.14-.4.25-.24c2.83-2.82,5.78-3.95,8.52-3.95h0a11.56,11.56,0,0,1,11.13,10.84h0v.35l-.22.12c-2.78,1.51-6,3-9.18,3h-.06c-3.88,0-7.7-2.39-10.31-9.74Zm10.36,8.76c3,0,6-1.39,8.74-2.85h0a10.11,10.11,0,0,0-3-6.26h0a10.57,10.57,0,0,0-7.44-3.26h0a11.36,11.36,0,0,0-7.9,3.54h0c2.52,6.77,6,8.81,9.64,8.83Z" transform="translate(-91.69 -41.47)"/></g><g id="path4019"><path class="cls-1" d="M132.5,277c-.29,13.62,8.12,24,17.43,22.78C147.74,285,137.32,276.32,132.5,277Z" transform="translate(-91.69 -41.47)"/><path class="cls-1" d="M132.17,277.68c0-.24,0-.48,0-.72h0v-.43l.28,0a3.48,3.48,0,0,1,.57,0h0c5.2,0,15,8.7,17.21,23.2h0l.08.55-.37.05a11.63,11.63,0,0,1-1.55.1h0c-8.68,0-16.24-9.83-16.24-22.67Zm.65,0c0,12.22,7.22,21.69,15.59,21.69h0a10.65,10.65,0,0,0,1.12-.06h0c-2.21-13.62-11.74-21.92-16.49-21.88h-.22v.24Z" transform="translate(-91.69 -41.47)"/></g><g id="path4021"><path class="cls-1" d="M126.57,288.23c1.32,10.61,12.34,15.6,20.1,12.11C145.24,289.5,131.44,284.2,126.57,288.23Z" transform="translate(-91.69 -41.47)"/><path class="cls-1" d="M126.25,288.32l0-.35.2-.17a7.06,7.06,0,0,1,4.59-1.41h0c6.15,0,14.77,5,16,13.85h0l.06.44-.28.13a13.15,13.15,0,0,1-5.39,1.12h0a15.31,15.31,0,0,1-15.13-13.61ZM141.38,301a12.82,12.82,0,0,0,4.91-1h0c-1.24-7.7-9.44-12.66-15.29-12.62h0a6.89,6.89,0,0,0-4.06,1.12h0A14.61,14.61,0,0,0,141.38,301Z" transform="translate(-91.69 -41.47)"/></g><g id="path4015"><path class="cls-1" d="M145.91,280c10,1.63,13.34,15,14.46,25.23C151.58,302.31,142.6,297.21,145.91,280Z" transform="translate(-91.69 -41.47)"/><path class="cls-1" d="M160.29,305.72c-3.76-1.26-7.59-2.91-10.5-5.79h0c-2.91-2.86-4.92-7.05-4.91-13.16h0a36.47,36.47,0,0,1,.72-6.9h0l.07-.4.28,0c10.18,1.67,13.63,15.35,14.74,25.64h0l.08.72-.48-.16Zm-14.76-19c0,5.77,1.83,9.57,4.62,12.34h0c2.67,2.64,6.23,4.26,9.81,5.49h0c-1.19-10-4.52-22.32-13.81-24.06h0a34,34,0,0,0-.62,6.23Z" transform="translate(-91.69 -41.47)"/></g><g id="path4009"><path class="cls-1" d="M132.89,318.51c6.23-12.17,15.36-10.19,25.66-2.45-7.94,12.12-16.71,9-25.66,2.45Z" transform="translate(-91.69 -41.47)"/><path class="cls-1" d="M146.33,324.77c-4.46,0-9-2.49-13.58-5.82h0l.14-.44.26.3-.26-.3-.14.44-.36-.27.24-.47c3.2-6.27,7.22-8.9,11.72-8.89h0c4.38,0,9.23,2.45,14.34,6.3h0l.41.3-.32.48c-3.94,6-8.13,8.37-12.42,8.37h0Zm0-1c4,0,7.91-2.09,11.66-7.6h0c-4.91-3.63-9.53-5.89-13.64-5.89h0c-4.22,0-7.9,2.33-11,8h0c4.42,3.17,8.76,5.46,12.94,5.46Z" transform="translate(-91.69 -41.47)"/></g><g id="path4011"><path class="cls-1" d="M140.35,298.18c9.17-5.38,22.24,2.26,23.08,15.71C154.11,317.71,139.72,314.26,140.35,298.18Z" transform="translate(-91.69 -41.47)"/><path class="cls-1" d="M145.11,312c-3-2.65-5.11-6.87-5.1-12.79h0c0-.34,0-.69,0-1h0v-.31l.2-.12A12.92,12.92,0,0,1,146.8,296h0c8,0,16.24,7,16.95,17.89h0l0,.41-.27.11a19.58,19.58,0,0,1-7.43,1.43h0a16.49,16.49,0,0,1-11-3.82Zm-4.45-12.79c0,5.55,1.9,9.39,4.78,11.94h0a16.07,16.07,0,0,0,10.64,3.7h0a19.33,19.33,0,0,0,7-1.3h0c-.79-9.88-8.61-16.59-16.27-16.59h0a12.41,12.41,0,0,0-6.13,1.59h0c0,.22,0,.45,0,.66Z" transform="translate(-91.69 -41.47)"/></g><g id="path4013"><path class="cls-1" d="M158.16,284.91c7.64,5.68,15.82,10.54,15,29.27-15.61,5.73-15-13.82-15-29.27Z" transform="translate(-91.69 -41.47)"/><path class="cls-1" d="M159,305.28c-1.21-6-1.1-13.59-1.12-20.36h0v-.8l.47.35c7.25,5.38,15.27,10.24,15.26,27.29h0c0,.78,0,1.6,0,2.45h0v.36l-.24.09a15,15,0,0,1-5.09,1h-.06c-5.32,0-8-4.43-9.16-10.41Zm.62-.28c1.19,5.75,3.5,9.67,8.6,9.71h0a14.22,14.22,0,0,0,4.7-.92h0c0-.7,0-1.38,0-2h0c0-16.09-7.24-20.73-14.43-26.06h0c0,6.58,0,13.76,1.09,19.3Z" transform="translate(-91.69 -41.47)"/></g><g id="path4007"><path class="cls-1" d="M146.23,329.1c10.49,2.77,19.65-.4,27-14.53C165.24,310.38,152.85,313.17,146.23,329.1Z" transform="translate(-91.69 -41.47)"/><path class="cls-1" d="M152.77,330.5a25.72,25.72,0,0,1-6.6-.92h0a.39.39,0,0,1-.24-.28h0a.72.72,0,0,1,0-.46h0c4.91-11.82,13-16.51,20.07-16.51h0a15.51,15.51,0,0,1,7.27,1.78h0a.42.42,0,0,1,.2.33h0a.73.73,0,0,1-.05.44h0c-5.78,11.19-12.79,15.62-20.64,15.62h0Zm0-1c7.57,0,14.23-4.11,19.87-14.71h0a15.24,15.24,0,0,0-6.62-1.5h0c-6.8,0-14.46,4.39-19.25,15.43h0a24.91,24.91,0,0,0,6,.78Z" transform="translate(-91.69 -41.47)"/></g></g></g><g id="path4215"><path class="cls-1" d="M132.69,277.44l-5.69-9" transform="translate(-91.69 -41.47)"/><path class="cls-1" d="M132.28,278l-5.69-9a1.2,1.2,0,0,1,0-1.2h0a.45.45,0,0,1,.8,0h0l5.68,9a1.15,1.15,0,0,1,0,1.2h0a.46.46,0,0,1-.39.24h0a.49.49,0,0,1-.4-.27Z" transform="translate(-91.69 -41.47)"/></g><g id="path4001"><path class="cls-1" d="M176.18,329.43H188.9c11.74-12.67,16.39-27.27,36.29-28.55,7.26-.47,14,9.7,15.44,14.27-9.51-7.69-16.87-5.1-27.63,12.65-5.15,8.5-11.85,13.77-20.85,14.68C180.11,343.7,180.31,334.84,176.18,329.43Z" transform="translate(-91.69 -41.47)"/><path class="cls-1" d="M180.43,338.5c-1.82-2.81-2.8-6.06-4.63-8.43h0l.38-.64-.38.64-1.13-1.49h14.05c11.48-12.46,16.41-27.28,36.44-28.55h0l.51,0h0c7.44.09,13.94,10,15.47,14.79h0l.71,2.31-1.49-1.21c-3.24-2.62-6.18-4-9.06-4h0c-5.43,0-10.87,4.9-17.88,16.46h0c-5.24,8.65-12.11,14-21.23,15h0c-.77.07-1.5.11-2.18.11H190c-5,0-7.7-2.13-9.52-4.94Zm.81-1.19c1.65,2.5,3.92,4.41,8.77,4.43h0a19.47,19.47,0,0,0,2.1-.11h0c8.87-.9,15.4-6.05,20.48-14.4h0c7.07-11.67,12.78-17,18.71-17h0a13.82,13.82,0,0,1,7.79,2.83h0c-2.37-4.65-7.82-11.41-13.42-11.33h-.45c-19.69,1.29-24.1,15.53-36,28.39h0l-.15.16H177.55c1.41,2.36,2.33,5,3.69,7Z" transform="translate(-91.69 -41.47)"/></g><g id="path4911"><path class="cls-1" d="M353,237.67" transform="translate(-91.69 -41.47)"/><path class="cls-1" d="M353,237.67" transform="translate(-91.69 -41.47)"/></g><g id="g4913"><g id="g4915"><g id="path4917"><path class="cls-1" d="M348.37,146.29l1.73,22.48" transform="translate(-91.69 -41.47)"/><path class="cls-1" d="M349.77,168.83l-1.72-22.49c0-.27.11-.51.29-.54h0c.17,0,.34.16.36.43h0l1.72,22.49c0,.27-.11.51-.29.54h0c-.17,0-.31-.19-.33-.44Z" transform="translate(-91.69 -41.47)"/></g><g id="path4919"><path class="cls-1" d="M344.84,167.67l2.16,20.8" transform="translate(-91.69 -41.47)"/><path class="cls-1" d="M346.68,188.54l-2.17-20.8c0-.27.1-.52.28-.56h0c.18,0,.34.14.37.41h0l2.17,20.8c0,.27-.1.52-.28.56H347c-.15,0-.29-.18-.32-.42Z" transform="translate(-91.69 -41.47)"/></g><g id="path4921"><path class="cls-1" d="M363.79,150.94l.82,22" transform="translate(-91.69 -41.47)"/><path class="cls-1" d="M364.28,173l-.81-22c0-.27.13-.5.3-.52h0c.18,0,.34.19.35.47h0l.81,22c0,.27-.13.5-.31.51h0s0,0,0,0h0c-.17,0-.31-.2-.32-.47Z" transform="translate(-91.69 -41.47)"/></g><g id="path4923"><path class="cls-1" d="M371.38,162.07,370.31,185" transform="translate(-91.69 -41.47)"/><path class="cls-1" d="M370.28,185.44c-.18,0-.31-.26-.3-.53h0L371.05,162c0-.27.17-.48.35-.46h0c.18,0,.31.26.3.53h0L370.63,185c0,.26-.15.46-.32.46h0Z" transform="translate(-91.69 -41.47)"/></g><g id="path4925"><path class="cls-1" d="M356.94,166.23l-2.83-34.82" transform="translate(-91.69 -41.47)"/><path class="cls-1" d="M356.62,166.29l-2.84-34.81c0-.28.11-.52.29-.55h0c.18,0,.34.16.36.43h0l2.84,34.82c0,.26-.11.51-.29.54h0c-.16,0-.3-.19-.32-.44Z" transform="translate(-91.69 -41.47)"/></g><g id="path4927"><path class="cls-1" d="M343.2,180.54l2.91,22.12" transform="translate(-91.69 -41.47)"/><path class="cls-1" d="M345.79,202.76l-2.91-22.13a.53.53,0,0,1,.25-.58h0c.18-.05.35.12.39.39h0l2.91,22.12c0,.27-.07.53-.26.58h-.06c-.15,0-.28-.16-.32-.39Z" transform="translate(-91.69 -41.47)"/></g><g id="path4929"><path class="cls-1" d="M370.87,205.29l3.51-14.48" transform="translate(-91.69 -41.47)"/><path class="cls-1" d="M370.76,205.75a.57.57,0,0,1-.2-.62h0l3.52-14.48c.06-.26.25-.39.42-.29h0a.58.58,0,0,1,.19.63h0l-3.51,14.48c-.05.19-.18.32-.31.32h0a.21.21,0,0,1-.11,0Z" transform="translate(-91.69 -41.47)"/></g></g><g id="g4931"><g id="path4933"><path class="cls-1" d="M349.85,166.65c-2.86,13.53,3,28.89,6.36,33.44C356.08,189.7,356.05,170.44,349.85,166.65Z" transform="translate(-91.69 -41.47)"/><path class="cls-1" d="M356,200.45c-2.78-3.84-7.22-14.75-7.23-26.17h0a37.14,37.14,0,0,1,.78-7.78h0l.1-.51.33.2c3.29,2,4.85,8,5.65,14.62h0a184.55,184.55,0,0,1,.92,19.27h0v1.14l-.56-.77Zm-6.58-26.17c0,10.27,3.81,20.38,6.46,24.61h0A171.86,171.86,0,0,0,355,181h0c-.76-6.29-2.23-11.7-4.94-13.66h0a36.94,36.94,0,0,0-.64,7Zm.31-7.18.13-.45-.13.45Z" transform="translate(-91.69 -41.47)"/></g><g id="path4935"><path class="cls-1" d="M346.87,185.82c9.32,3.66,7.5,14.91,9.21,27.73C351.52,207.6,345.6,204.67,346.87,185.82Z" transform="translate(-91.69 -41.47)"/><path class="cls-1" d="M355.86,213.92c-4.05-5.28-9.51-8.45-9.49-23.21h0c0-1.52.05-3.17.18-5h0l0-.56.37.14c4.75,1.84,6.76,5.79,7.69,10.77h0c.94,5,.91,11,1.76,17.34h0l.19,1.42-.73-1ZM347,190.71c0,13.53,4.52,16.63,8.57,21.58h0c-.7-5.95-.73-11.48-1.58-15.91h0c-.89-4.63-2.56-8.08-6.85-9.94h0c-.1,1.53-.14,2.95-.14,4.27Z" transform="translate(-91.69 -41.47)"/></g><g id="path4937"><path class="cls-1" d="M364.34,169.7c5.49,9.42,0,22-2.71,30.39C358.52,189.44,358.12,175.5,364.34,169.7Z" transform="translate(-91.69 -41.47)"/><path class="cls-1" d="M361.33,200.29a55.51,55.51,0,0,1-2.23-15.08h0c0-6.49,1.43-12.55,5.07-15.92h0l.23-.22.18.31a19,19,0,0,1,2.42,9.75h0c0,7.57-3.26,15.4-5.08,21.17h0l-.3,1-.29-1Zm-1.58-15.08a53.71,53.71,0,0,0,1.9,13.7h0c1.87-5.71,4.71-13,4.7-19.78h0a17.77,17.77,0,0,0-2.08-8.78h0c-3.21,3.18-4.51,8.71-4.52,14.86Z" transform="translate(-91.69 -41.47)"/></g><g id="path4939"><path class="cls-1" d="M370.43,183.37c-.16,14.9-2.58,27.2-10.29,33.44C360.81,199.43,363.29,186.14,370.43,183.37Z" transform="translate(-91.69 -41.47)"/><path class="cls-1" d="M359.81,216.78c.68-17.39,3.13-31,10.54-33.89h0l.41-.16v.65c-.15,15-2.6,27.5-10.46,33.86h0l-.51.42,0-.88Zm.69-.84c7-6.14,9.38-17.71,9.59-31.92h0c-6.44,2.91-8.89,15.35-9.59,31.92Z" transform="translate(-91.69 -41.47)"/></g><g id="path4941"><path class="cls-1" d="M356.75,163.18c6.2,10,3.89,25.95.14,33.85C355,188.9,351.8,171.69,356.75,163.18Z" transform="translate(-91.69 -41.47)"/><path class="cls-1" d="M356.58,197.19a100.38,100.38,0,0,1-2.78-21h0c0-5,.69-9.82,2.71-13.3h0l.24-.4.24.39c2.84,4.61,3.93,10.41,3.93,16.09h0a45.39,45.39,0,0,1-3.77,18.38h0l-.36.78-.21-.9Zm-2.13-21A96.53,96.53,0,0,0,357,195.94h0a45.3,45.3,0,0,0,3.28-17h0c0-5.34-1-10.7-3.51-15h0c-1.69,3.17-2.31,7.55-2.31,12.22Z" transform="translate(-91.69 -41.47)"/></g><g id="path4943"><path class="cls-1" d="M358.65,184c-4.62,11.07-5.5,26.58-.27,37.73C364,211.54,362.45,195,358.65,184Z" transform="translate(-91.69 -41.47)"/><path class="cls-1" d="M358.11,222a42.85,42.85,0,0,1-3.62-18h0a53.9,53.9,0,0,1,3.88-20.25h0l.31-.73.26.77a66.37,66.37,0,0,1,3.44,20.75h0c0,6.4-1.07,12.65-3.75,17.51h0l-.27.49-.25-.52Zm-3-18a41.87,41.87,0,0,0,3.26,16.91h0c2.36-4.56,3.33-10.36,3.33-16.37h0A65.11,65.11,0,0,0,358.62,185h0a52.88,52.88,0,0,0-3.48,19Zm3.22-19.77.29-.22-.29.22Z" transform="translate(-91.69 -41.47)"/></g><g id="path4945"><path class="cls-1" d="M358.78,228.23a30,30,0,0,0-12.86-27.53C345.78,221,351.71,230.75,358.78,228.23Z" transform="translate(-91.69 -41.47)"/><path class="cls-1" d="M356.63,229.11c-3.12,0-5.92-2.49-7.88-7.18h0c-2-4.7-3.16-11.59-3.16-20.53h0v-.7h0V200l.45.3a30.75,30.75,0,0,1,13.23,25h0a25.58,25.58,0,0,1-.18,3h0l0,.32-.21.08a6.75,6.75,0,0,1-2.21.4h0Zm-7.33-7.71c1.89,4.48,4.44,6.72,7.33,6.73h0a6.26,6.26,0,0,0,1.87-.31h0c.08-.84.13-1.69.13-2.55h0a29.78,29.78,0,0,0-12.39-23.81h0c0,8.78,1.18,15.48,3.06,19.94Z" transform="translate(-91.69 -41.47)"/></g><g id="path4947"><path class="cls-1" d="M356.38,228.64c10.21-.81,13.41-11.74,15-25.49C364.13,206.48,359.31,215,356.38,228.64Z" transform="translate(-91.69 -41.47)"/><path class="cls-1" d="M356.12,228.93a.68.68,0,0,1-.05-.45h0c2.94-13.75,7.84-22.42,15.23-25.81h0a.24.24,0,0,1,.31.11h0a.66.66,0,0,1,.1.45h0c-1.58,13.78-4.91,25.1-15.31,25.9h0l0-.49,0,.49h0a.33.33,0,0,1-.26-.2Zm.72-.84C366.28,227,369.34,217,371,203.86h0c-6.74,3.39-11.28,11.39-14.14,24.23Z" transform="translate(-91.69 -41.47)"/></g></g></g><g id="g4949"><g id="g4951"><g id="path4953"><path class="cls-1" d="M391.63,229.73l-10.56,21.2" transform="translate(-91.69 -41.47)"/><path class="cls-1" d="M380.87,251.33a.65.65,0,0,1-.06-.7h0l10.55-21.2c.11-.22.32-.26.46-.1h0a.68.68,0,0,1,.07.69h0l-10.56,21.2a.33.33,0,0,1-.26.2h0a.28.28,0,0,1-.2-.09Z" transform="translate(-91.69 -41.47)"/></g><g id="g4955"><g id="path4957"><path class="cls-1" d="M389,213.77l-6.77,20" transform="translate(-91.69 -41.47)"/><path class="cls-1" d="M382,234.19a.61.61,0,0,1-.14-.66h0l6.76-20c.09-.24.28-.34.44-.22h0a.65.65,0,0,1,.15.67h0l-6.77,20a.35.35,0,0,1-.3.27h0a.2.2,0,0,1-.14-.06Z" transform="translate(-91.69 -41.47)"/></g><g id="path4959"><path class="cls-1" d="M377.17,221l13-31" transform="translate(-91.69 -41.47)"/><path class="cls-1" d="M377,221.41a.64.64,0,0,1-.1-.67h0l13-31c.09-.23.29-.3.45-.15h0a.63.63,0,0,1,.1.67h0l-13,31a.32.32,0,0,1-.28.23h0a.21.21,0,0,1-.17-.08Z" transform="translate(-91.69 -41.47)"/></g><g id="path4961"><path class="cls-1" d="M380,261.32l-10.83,6.94" transform="translate(-91.69 -41.47)"/><path class="cls-1" d="M368.91,268.45a.61.61,0,0,1,.17-.65h0l10.83-6.93c.17-.11.36,0,.43.26h0a.6.6,0,0,1-.17.64h0l-10.83,6.93a.22.22,0,0,1-.13,0h0c-.13,0-.25-.11-.3-.29Z" transform="translate(-91.69 -41.47)"/></g><g id="path4963"><path class="cls-1" d="M371.52,212.55l6.77-17.13" transform="translate(-91.69 -41.47)"/><path class="cls-1" d="M371.35,213a.66.66,0,0,1-.11-.67h0L378,195.17c.09-.23.29-.31.45-.17h0a.66.66,0,0,1,.11.67h0L371.8,212.8a.33.33,0,0,1-.28.24h0a.23.23,0,0,1-.17-.07Z" transform="translate(-91.69 -41.47)"/></g><g id="path4965"><path class="cls-1" d="M361.42,225.69l3.25-13.05" transform="translate(-91.69 -41.47)"/><path class="cls-1" d="M361.31,226.15a.58.58,0,0,1-.19-.63h0l3.25-13.05c.06-.25.25-.38.42-.29h0a.6.6,0,0,1,.19.64h0l-3.25,13.05c-.05.19-.17.32-.31.32h0a.21.21,0,0,1-.11,0Z" transform="translate(-91.69 -41.47)"/></g><g id="path4967"><path class="cls-1" d="M352.62,238.25l6.24-13.9" transform="translate(-91.69 -41.47)"/><path class="cls-1" d="M352.44,238.66a.65.65,0,0,1-.09-.68h0l6.24-13.91c.1-.22.3-.28.45-.13h0a.66.66,0,0,1,.09.68h0l-6.24,13.91a.34.34,0,0,1-.27.22h0a.23.23,0,0,1-.18-.09Z" transform="translate(-91.69 -41.47)"/></g></g></g><g id="g4969"><g id="path4971"><path class="cls-1" d="M383.16,231.14c-6.08-3.18-12.35-.45-13.54,20C377.83,248.06,383.23,241.26,383.16,231.14Z" transform="translate(-91.69 -41.47)"/><path class="cls-1" d="M369.29,251.08c.9-16,5.06-21.57,9.87-21.55h0a8.87,8.87,0,0,1,4.1,1.15h0l-.11.46.11-.46.22.11v.54h0c0,10.33-5.56,17.23-13.79,20.27h0l-.44.16,0-.68Zm.69-.6c7.81-3.1,12.8-9.56,12.85-19h0a8.28,8.28,0,0,0-3.67-1h0c-4.33,0-8.15,4.65-9.18,20Z" transform="translate(-91.69 -41.47)"/></g><g id="path4973"><path class="cls-1" d="M371.78,211.77c-8.71,6.7-11.53,23.11-9.57,33.78C369.6,241.36,374.54,225.58,371.78,211.77Z" transform="translate(-91.69 -41.47)"/><path class="cls-1" d="M361.89,245.68a39.85,39.85,0,0,1-.6-7.11h0c0-10,3.24-21.76,10.35-27.24h0l.34-.27.12.57a41.84,41.84,0,0,1,.79,8.21h0c0,11.55-4.42,22.67-10.56,26.17h0l-.34.19-.1-.52Zm.05-7.11a39.34,39.34,0,0,0,.49,6.32h0c5.64-3.5,9.81-14.08,9.8-25.06h0a41.24,41.24,0,0,0-.65-7.35h0c-6.59,5.36-9.64,16.53-9.64,26.09Zm9.53-26.66.31-.14-.31.14Z" transform="translate(-91.69 -41.47)"/></g><g id="path4975"><path class="cls-1" d="M361.49,224.82c4.83,13.19,1.15,25.14-5.14,36.71C355.27,248.51,353.17,235.21,361.49,224.82Z" transform="translate(-91.69 -41.47)"/><path class="cls-1" d="M356,261.59c-.44-5.32-1-10.71-1-16h0c0-7.58,1.31-15,6.31-21.18h0l.31-.38.19.52A36.16,36.16,0,0,1,364,237.09h0c0,8.69-3.13,16.83-7.43,24.75h0l-.48.88-.1-1.13Zm-.4-16c0,4.78.52,9.74,1,14.7h0c4-7.56,6.8-15.23,6.8-23.23h0a34.59,34.59,0,0,0-2-11.51h0c-4.59,6-5.77,12.76-5.78,20Z" transform="translate(-91.69 -41.47)"/></g><g id="path4977"><path class="cls-1" d="M379.23,216.46c1.85,8.85-4.43,28.67-14.08,26.71C366.79,230.7,372.17,218.94,379.23,216.46Z" transform="translate(-91.69 -41.47)"/><path class="cls-1" d="M365.1,243.66l-.34-.07.07-.51c1.67-12.61,7.08-24.52,14.33-27.1h0l.29-.1.09.43a18.28,18.28,0,0,1,.34,3.68h0c0,9.4-5.33,23.73-13.41,23.8h0a7.21,7.21,0,0,1-1.37-.13Zm1.37-.85c3.76,0,6.94-3.41,9.2-8h0a36.05,36.05,0,0,0,3.56-14.8h0a17.63,17.63,0,0,0-.23-2.94h0c-6.62,2.58-11.78,13.72-13.46,25.69h0a5.91,5.91,0,0,0,.93.07Z" transform="translate(-91.69 -41.47)"/></g><g id="path4979"><path class="cls-1" d="M382.34,248.68c-4.46,14.27-13.42,16-22.47,17.53C366.81,255.65,373.34,241.6,382.34,248.68Z" transform="translate(-91.69 -41.47)"/><path class="cls-1" d="M359.64,265.87c5.62-8.51,11-19.55,17.86-19.6h0a8,8,0,0,1,5,2h0l-.15.44.15-.44.28.21-.13.43c-4.55,14.54-13.71,16.32-22.73,17.82h0l-.92.15.65-1Zm1.1-.3c8.65-1.48,16.9-3.52,21.17-16.67h0a7.35,7.35,0,0,0-4.41-1.65h0c-6.13,0-11.32,9.9-16.72,18.32Z" transform="translate(-91.69 -41.47)"/></g><g id="path4981"><path class="cls-1" d="M371.51,237.46c-8.91,3.92-15.39,12.17-16.38,30.18C364.87,263.51,370.79,254.09,371.51,237.46Z" transform="translate(-91.69 -41.47)"/><path class="cls-1" d="M354.8,267.6c1-18.19,7.63-26.69,16.62-30.61h0l.45-.2,0,.71c-.7,16.8-6.78,26.48-16.61,30.62h0l-.46.18,0-.7Zm.7-.63c9.23-4.15,14.8-13.08,15.65-28.83h0c-8.48,3.93-14.54,11.8-15.65,28.83Z" transform="translate(-91.69 -41.47)"/></g><g id="path4983"><path class="cls-1" d="M353.23,237.05c4.76,16.42,3.94,29.74-5,38.55C344.18,257.78,348,246.8,353.23,237.05Z" transform="translate(-91.69 -41.47)"/><path class="cls-1" d="M347.91,275.75a63.92,63.92,0,0,1-1.71-14.16h0c0-10.28,3.06-17.92,6.78-24.84h0l.34-.63.21.74a65.48,65.48,0,0,1,2.9,18h0c0,8.53-2.51,15.76-8,21.19h0l-.35.34-.14-.6Zm-1.05-14.16a61.46,61.46,0,0,0,1.54,13.24h0c5.12-5.25,7.37-12,7.38-20h0A62.68,62.68,0,0,0,353.14,238h0c-3.52,6.69-6.28,13.93-6.28,23.59Z" transform="translate(-91.69 -41.47)"/></g><g id="path4985"><path class="cls-1" d="M371.24,267c-9.22-6.26-17.76-5.48-25.18,6.73C356.42,280.13,364.85,278.06,371.24,267Z" transform="translate(-91.69 -41.47)"/><path class="cls-1" d="M356.84,277.83c-3.38,0-7-1.22-10.91-3.62h0l-.43-.26.32-.52c4.52-7.46,9.52-10.75,14.82-10.74h0c3.47,0,7.05,1.4,10.73,3.89h0l-.13.45.13-.45.4.28-.29.5c-4.05,7-9,10.47-14.62,10.47h0Zm0-1c5.36,0,10-3.16,13.86-9.64h0c-3.48-2.29-6.84-3.54-10.07-3.54h0c-5,0-9.66,3-14,9.9h0a20.3,20.3,0,0,0,10.22,3.28Z" transform="translate(-91.69 -41.47)"/></g></g></g><g id="path4987"><path class="cls-1" d="M364.88,286.61c-59.86-37.06-51.94,37.92-88.55,25.89C300.09,309.57,312.91,231.83,364.88,286.61Z" transform="translate(-91.69 -41.47)"/><path class="cls-1" d="M283.92,314.67a24.69,24.69,0,0,1-7.71-1.34h0l.07-1.67c8.49-1,15.76-12.18,24.12-23.31h0c8.36-11.09,17.88-22.09,31.08-22.09h0c9.23,0,20.19,5.38,33.72,19.65h0l-.32.69.21-.78-.21.78.32-.69-.54,1.48c-12-7.44-21.24-10.33-28.62-10.32h0c-13.23,0-20.55,9.19-27.47,18.58h0c-6.89,9.36-13.37,19-24.64,19h0Zm0-1.7c10.79,0,16.94-9.14,23.89-18.58h0c6.92-9.41,14.62-19,28.23-19h0c6.53,0,14.41,2.2,24.22,7.61h0c-11.44-10.89-20.82-15-28.78-15h0c-12.75,0-22,10.61-30.33,21.67h0c-7.34,9.71-13.9,19.81-21.59,22.88h0a22.09,22.09,0,0,0,4.36.46Z" transform="translate(-91.69 -41.47)"/></g><g id="path4989"><path class="cls-1" d="M216.48,348.19c-1.71,2.41-2.48,1.63-3.93,0s-2.35-3.8.14-5.71c9.93-7.63,21.21-29,57.41-29l43.19-.86L317.9,320l-46.45-.77c-19.12-.31-38.59,6-55,29Z" transform="translate(-91.69 -41.47)"/><path class="cls-1" d="M212.21,348.87a5.78,5.78,0,0,1-1.61-3.72h0a4.25,4.25,0,0,1,1.83-3.43h0c9.74-7.46,21.34-29.09,57.66-29.05h0l43.44-.87,5.69,9.07-47.77-.79H270.1c-18.61,0-37.37,6.48-53.23,28.74h0c-.82,1.14-1.53,1.75-2.29,1.75h0c-.92,0-1.57-.82-2.37-1.69Zm57.89-34.5c-36.07.05-47,21.07-57.16,28.87h0c-1,.8-1.21,1.46-1.21,1.91h0a4,4,0,0,0,1.16,2.36h0c.79.91,1.31,1.38,1.69,1.35h0c.32,0,.78-.26,1.52-1.29h0c16.11-22.63,35.23-29.21,54-29.2h1.36l45.11.75-3.52-5.62-42.95.86Z" transform="translate(-91.69 -41.47)"/></g><g id="path4991"><path class="cls-1" d="M347.55,329.62l-13.27-1.32" transform="translate(-91.69 -41.47)"/><path class="cls-1" d="M347.51,330.47l-13.27-1.33c-.31,0-.54-.43-.52-.9h0c0-.47.29-.82.6-.79h0l13.27,1.33c.31,0,.55.43.53.9h0c0,.45-.27.79-.57.79h0Z" transform="translate(-91.69 -41.47)"/></g><g id="path4993"><path class="cls-1" d="M364.07,310.67l-16.59,10.09" transform="translate(-91.69 -41.47)"/><path class="cls-1" d="M347,321.08a1.07,1.07,0,0,1,.31-1.11h0l16.59-10.09c.29-.17.62,0,.74.47h0a1.05,1.05,0,0,1-.31,1.11h0l-16.59,10.09a.42.42,0,0,1-.21.06h0c-.22,0-.43-.2-.53-.53Z" transform="translate(-91.69 -41.47)"/></g><g id="path4995"><path class="cls-1" d="M377.6,267.85l-22.47,22.43" transform="translate(-91.69 -41.47)"/><path class="cls-1" d="M354.66,290.74a1.11,1.11,0,0,1,.16-1.17h0l22.47-22.44c.26-.26.61-.15.79.24h0a1.15,1.15,0,0,1-.16,1.18h0L355.44,291a.43.43,0,0,1-.31.15h0a.55.55,0,0,1-.47-.39Z" transform="translate(-91.69 -41.47)"/></g><g id="path4997"><path class="cls-1" d="M337,281.5l7.58-11.42" transform="translate(-91.69 -41.47)"/><path class="cls-1" d="M336.64,282.1a1.13,1.13,0,0,1,0-1.2h0l7.58-11.42a.45.45,0,0,1,.8,0h0a1.17,1.17,0,0,1,0,1.2h0l-7.59,11.42a.48.48,0,0,1-.39.24h0a.45.45,0,0,1-.4-.24Z" transform="translate(-91.69 -41.47)"/></g><g id="path4999"><path class="cls-1" d="M323.66,287.17l9.07-10.4" transform="translate(-91.69 -41.47)"/><path class="cls-1" d="M323.21,287.69a1.15,1.15,0,0,1,.11-1.19h0l9.07-10.4c.25-.28.6-.21.79.16h0a1.15,1.15,0,0,1-.11,1.19h0L324,287.85a.43.43,0,0,1-.34.17h0a.54.54,0,0,1-.45-.33Z" transform="translate(-91.69 -41.47)"/></g><g id="g5001"><g id="path5003"><path class="cls-1" d="M368.13,291.09l-14.69,13.56" transform="translate(-91.69 -41.47)"/><path class="cls-1" d="M353.16,304.91a.66.66,0,0,1,.11-.68h0L368,290.67c.15-.14.35-.06.44.17h0a.63.63,0,0,1-.1.67h0l-14.69,13.56a.29.29,0,0,1-.17.08h0a.32.32,0,0,1-.28-.24Z" transform="translate(-91.69 -41.47)"/></g><g id="g5005"><g id="path5007"><path class="cls-1" d="M355.93,302.65c-8.94-8.9-19.11-.62-19.15,6.48C342.94,312.49,351.25,315.77,355.93,302.65Z" transform="translate(-91.69 -41.47)"/><path class="cls-1" d="M345.85,312.62c-3.18,0-6.41-1.51-9.18-3h0l-.22-.11v-.35a11.58,11.58,0,0,1,11.14-10.84h0c2.73,0,5.69,1.13,8.52,3.94h0l-.18.42.18-.42.24.25-.14.4c-2.6,7.35-6.43,9.74-10.31,9.74h0Zm0-1c3.67,0,7.12-2.06,9.64-8.83h0a11.36,11.36,0,0,0-7.9-3.54h0a10.59,10.59,0,0,0-7.44,3.26h0a10.09,10.09,0,0,0-3,6.26h0c2.7,1.46,5.78,2.85,8.74,2.85Z" transform="translate(-91.69 -41.47)"/></g><g id="path5009"><path class="cls-1" d="M351.14,277c.3,13.62-8.12,24-17.43,22.78C335.9,285,346.32,276.32,351.14,277Z" transform="translate(-91.69 -41.47)"/><path class="cls-1" d="M333.69,300.25l-.38-.05.08-.55c2.18-14.5,12-23.16,17.22-23.2h0a3.52,3.52,0,0,1,.56,0h0l0,.49,0-.49.29,0v1.15h0c0,12.84-7.56,22.65-16.24,22.67h0a11.38,11.38,0,0,1-1.54-.1Zm1.54-.88c8.37,0,15.58-9.47,15.59-21.69h0v-.24h-.22c-4.75,0-14.27,8.26-16.48,21.88h0a10.32,10.32,0,0,0,1.11.06Z" transform="translate(-91.69 -41.47)"/></g><g id="path5011"><path class="cls-1" d="M357.08,288.23c-1.33,10.61-12.34,15.6-20.11,12.11C338.4,289.5,352.2,284.2,357.08,288.23Z" transform="translate(-91.69 -41.47)"/><path class="cls-1" d="M336.88,300.81l-.29-.13.06-.44c1.22-8.82,9.84-13.82,16-13.85h0a7.06,7.06,0,0,1,4.59,1.41h0l-.15.43.15-.43.21.17,0,.35a15.31,15.31,0,0,1-15.14,13.61h0a13.07,13.07,0,0,1-5.38-1.12Zm5.38.14a14.61,14.61,0,0,0,14.44-12.46h0a6.81,6.81,0,0,0-4.06-1.12h0c-5.85,0-14.05,4.92-15.29,12.62h0a12.64,12.64,0,0,0,4.91,1Z" transform="translate(-91.69 -41.47)"/></g><g id="path5013"><path class="cls-1" d="M337.73,280c-10,1.63-13.34,15-14.45,25.23C332.06,302.31,341,297.21,337.73,280Z" transform="translate(-91.69 -41.47)"/><path class="cls-1" d="M323,305.16c1.11-10.29,4.57-24,14.75-25.64h0l.27,0,.07.4a36.38,36.38,0,0,1,.72,6.9h0c0,6.11-2,10.29-4.91,13.16h0c-2.92,2.88-6.74,4.53-10.51,5.79h0l-.47.16.08-.72Zm.73-.56a25.34,25.34,0,0,0,9.81-5.49h0c2.79-2.78,4.61-6.57,4.62-12.34h0a34.86,34.86,0,0,0-.62-6.23h0c-9.29,1.74-12.62,14.09-13.81,24.06Zm13.74-24.46.31-.13-.31.13Z" transform="translate(-91.69 -41.47)"/></g><g id="path5015"><path class="cls-1" d="M350.75,318.51c-6.23-12.17-15.35-10.19-25.66-2.45,8,12.12,16.72,9,25.66,2.45Z" transform="translate(-91.69 -41.47)"/><path class="cls-1" d="M324.86,316.4l-.31-.48.4-.3c5.11-3.85,10-6.3,14.35-6.3h0c4.49,0,8.51,2.62,11.72,8.88h0l-.26.3.26-.3.24.48-.36.27c-4.58,3.33-9.13,5.82-13.59,5.82h0c-4.3,0-8.5-2.35-12.44-8.37Zm12.45,7.39c4.18,0,8.52-2.29,12.94-5.46h0c-3.06-5.7-6.74-8-10.95-8h0c-4.12,0-8.74,2.26-13.65,5.89h0c3.75,5.51,7.63,7.59,11.66,7.6Z" transform="translate(-91.69 -41.47)"/></g><g id="path5017"><path class="cls-1" d="M343.29,298.18c-9.17-5.38-22.23,2.26-23.08,15.71C329.53,317.71,343.92,314.26,343.29,298.18Z" transform="translate(-91.69 -41.47)"/><path class="cls-1" d="M320.13,314.37l-.27-.12,0-.41c.7-10.88,9-17.88,16.95-17.89h0a12.92,12.92,0,0,1,6.56,1.76h0l-.12.46-.32,0,.32,0,.12-.46.2.12v.31c0,.35,0,.7,0,1h0c0,5.92-2.07,10.14-5.11,12.79h0a16.5,16.5,0,0,1-11,3.82h0a19.58,19.58,0,0,1-7.43-1.42Zm7.43.45a16,16,0,0,0,10.63-3.7h0c2.9-2.55,4.78-6.39,4.79-11.94h0c0-.21,0-.44,0-.66h0a12.41,12.41,0,0,0-6.13-1.59h0c-7.66,0-15.48,6.71-16.27,16.59h0a19.37,19.37,0,0,0,7,1.3Z" transform="translate(-91.69 -41.47)"/></g><g id="path5019"><path class="cls-1" d="M325.48,284.91c-7.64,5.68-15.81,10.54-15,29.27C326.06,319.91,325.42,300.36,325.48,284.91Z" transform="translate(-91.69 -41.47)"/><path class="cls-1" d="M315.46,315.69a15,15,0,0,1-5.09-1h0l-.23-.09,0-.36c0-.85-.05-1.67-.05-2.46h0c0-17,8-21.9,15.27-27.28h0l.47-.35v.79c0,6.77.09,14.38-1.12,20.37h0c-1.19,6-3.85,10.41-9.16,10.41h-.07Zm0-1c5.1,0,7.41-4,8.6-9.72h0c1.12-5.53,1.08-12.72,1.09-19.29h0c-7.18,5.33-14.42,10-14.43,26.06h0c0,.65,0,1.33,0,2h0a14.22,14.22,0,0,0,4.7.92Z" transform="translate(-91.69 -41.47)"/></g><g id="path5021"><path class="cls-1" d="M337.45,328.74c-10.49,2.77-20.24.42-27-14C319.77,308.4,330.83,312.81,337.45,328.74Z" transform="translate(-91.69 -41.47)"/><path class="cls-1" d="M310.2,315a.71.71,0,0,1-.05-.41h0a.51.51,0,0,1,.18-.32h0a15.21,15.21,0,0,1,8.55-2.81h0c7.07,0,14.1,5.61,18.84,17h0l-.27.27.27-.27a.69.69,0,0,1,0,.47h0a.38.38,0,0,1-.24.28h0a28.41,28.41,0,0,1-7.24,1h0c-7.75,0-14.81-4.06-20-15.26Zm20.06,14.28a27.35,27.35,0,0,0,6.65-.89h0c-4.64-10.75-11.32-15.94-18-15.95h0a14.56,14.56,0,0,0-7.92,2.49h0c5.08,10.56,11.79,14.33,19.29,14.35Z" transform="translate(-91.69 -41.47)"/></g></g></g><g id="path5023"><path class="cls-1" d="M351,277.44l5.69-9" transform="translate(-91.69 -41.47)"/><path class="cls-1" d="M350.57,278.05a1.15,1.15,0,0,1,0-1.2h0l5.69-9a.44.44,0,0,1,.79,0h0a1.17,1.17,0,0,1,0,1.21h0l-5.69,9a.5.5,0,0,1-.4.26h0a.48.48,0,0,1-.39-.24Z" transform="translate(-91.69 -41.47)"/></g><g id="path5025"><path class="cls-1" d="M307.47,329.43H294.74c-11.74-12.67-16.38-27.27-36.29-28.55-7.26-.47-14,9.7-15.43,14.27,9.51-7.69,16.86-5.1,27.62,12.65,5.15,8.5,11.85,13.77,20.85,14.68C303.54,343.7,303.34,334.84,307.47,329.43Z" transform="translate(-91.69 -41.47)"/><path class="cls-1" d="M293.63,343.44c-.68,0-1.4,0-2.18-.11h0c-9.12-.92-16-6.31-21.23-15h0c-7-11.56-12.45-16.47-17.88-16.46h0c-2.88,0-5.82,1.37-9.05,4h0l-1.5,1.21.72-2.31c1.52-4.8,8-14.7,15.46-14.79h0l.51,0h0c20,1.27,25,16.1,36.44,28.55h12.55v0H309l-1.14,1.49c-1.83,2.37-2.81,5.62-4.63,8.43h0c-1.82,2.81-4.52,4.94-9.52,4.94h-.06Zm-22.58-16.21c5.08,8.35,11.61,13.5,20.48,14.4h0a19.73,19.73,0,0,0,2.1.11h0c4.85,0,7.13-1.93,8.78-4.43h0c1.36-2.06,2.27-4.67,3.69-7H294.56l-.15-.16c-11.89-12.87-16.3-27.11-36-28.39h0l-.46,0h0c-5.6-.07-11,6.69-13.41,11.34h0a13.81,13.81,0,0,1,7.78-2.84h0c5.93,0,11.64,5.35,18.71,17Z" transform="translate(-91.69 -41.47)"/></g><g id="path3958"><path class="cls-1" d="M245.26,41.47a42.44,42.44,0,0,1,24.35,38.76c0,23.38-18.17,42.36-40.54,42.36a39.51,39.51,0,0,1-28.61-12.45c7.53,15.06,22.62,25.37,40,25.37,24.92,0,45.13-21.12,45.13-47.16C285.6,64,267.92,44,245.26,41.47Z" transform="translate(-91.69 -41.47)"/></g><g id="path3960"><path class="cls-1" d="M224.3,94.17l-8.6-11.44L202.13,86l7.75-12.09L202.7,61.46l13.4,4,9.12-11L225.75,69l12.82,5.68-13.06,5Z" transform="translate(-91.69 -41.47)"/></g><g id="path3948"><path class="cls-1" d="M307.66,181.85c-9-3.32-16.7-6.42-25-6.41h0c-9.62.05-14,2.44-19,5.13h0c-5,2.74-10.65,5.84-20.48,5.79h0c-8.33,0-14.48-3.09-20.59-5.85h0c-6.16-2.77-12.39-5.36-22-5.38h0c-8.57,0-15.69,3-24.32,6.23h0c-8.6,3.23-18.61,6.57-32.29,6.56h0v-9.77c12.88,0,22-3.06,30.49-6.23h0c8.45-3.15,16.34-6.55,26.12-6.56h0c10.51,0,17.86,3,24.12,5.85h0c6.3,2.86,11.38,5.37,18.45,5.38h0c8.89-.05,12.89-2.4,17.95-5.13h0c5-2.77,11-5.84,21.49-5.79h0c9.55,0,17.86,3.49,26.75,6.73h0c8.9,3.26,18.44,6.4,30.81,6.41h0l2.32,0h0l.16,9.76c-.84,0-1.67,0-2.48,0h0c-13.23,0-23.56-3.42-32.58-6.73Z" transform="translate(-91.69 -41.47)"/></g><g id="path3950"><path class="cls-1" d="M308.2,201.49c-9-3.33-16.7-6.42-25-6.41h0c-9.61,0-14,2.44-19,5.13h0c-5,2.73-10.66,5.84-20.49,5.79h0c-8.32,0-14.47-3.09-20.59-5.85h0c-6.15-2.78-12.39-5.36-22-5.38h0c-8.57,0-15.69,3-24.32,6.23h0c-8.6,3.23-18.61,6.57-32.29,6.56h0v-9.77c12.88,0,22-3.07,30.49-6.23h0c8.45-3.16,16.35-6.56,26.12-6.56h0c10.51,0,17.86,3,24.12,5.85h0c6.3,2.85,11.38,5.37,18.45,5.38h0c8.89,0,12.89-2.41,18-5.13h0c5-2.77,11-5.84,21.5-5.79h0c9.54,0,17.85,3.48,26.74,6.73h0c8.9,3.26,18.44,6.4,30.81,6.41h0c.76,0,1.53,0,2.32,0h0l.16,9.77c-.84,0-1.66,0-2.48,0h0c-13.23,0-23.56-3.42-32.58-6.73Z" transform="translate(-91.69 -41.47)"/></g><g id="path3952"><path class="cls-1" d="M307.05,221.1c-9-3.32-16.65-6.4-24.9-6.39h0c-9.62,0-14,2.45-19,5.13h0c-5,2.74-10.65,5.84-20.48,5.79h0c-8.33,0-14.48-3.09-20.59-5.85h0c-6.15-2.77-12.39-5.36-22-5.38h0c-7.92,0-14.6,2.55-22.4,5.51h0c-7.77,2.94-16.6,6.23-28.29,7.07h0l-.36-9.76c10.94-.8,19.07-3.81,26.83-6.74h0c7.74-2.93,15.19-5.85,24.22-5.85h0c10.51,0,17.86,3,24.13,5.85h0c6.29,2.86,11.38,5.37,18.44,5.38h0c8.9-.05,12.9-2.4,17.95-5.12h0c5-2.78,11-5.85,21.5-5.8h0c9.52,0,17.81,3.47,26.67,6.71h0c8.88,3.25,18.38,6.39,30.69,6.43h0l0,9.77c-13.16,0-23.45-3.45-32.44-6.75ZM149.44,227Z" transform="translate(-91.69 -41.47)"/></g><g id="path3954"><path class="cls-1" d="M305.82,240c-8.15-3-15.24-5.64-22.87-5.63h0c-9.61.05-14,2.44-19,5.12h0c-5,2.74-10.65,5.85-20.48,5.79h0c-8.33,0-14.48-3.09-20.59-5.85h0c-6.15-2.77-12.39-5.36-22-5.38h0c-7.57,0-14,2.33-21.36,5.12h0c-7.35,2.77-15.57,6-26.26,7.18h0l-.56-9.74c10-1.13,17.61-4.08,25-6.87h0c7.36-2.79,14.55-5.45,23.18-5.45h0c10.51,0,17.86,3,24.12,5.85h0c6.3,2.85,11.38,5.37,18.45,5.38h0c8.89-.06,12.89-2.41,17.95-5.13h0c5-2.77,11-5.84,21.49-5.79h0c8.79,0,16.55,3,24.65,5.95h0c8.12,3,16.63,6.11,27.25,7h0l-.4,9.76c-11.38-.91-20.51-4.26-28.63-7.27Z" transform="translate(-91.69 -41.47)"/></g><g id="path3956"><path class="cls-1" d="M303.5,258.56c-7-2.56-13.29-4.58-20-4.57h0c-9.61,0-14,2.44-19,5.12h0c-5,2.73-10.66,5.84-20.49,5.79h0c-8.32,0-14.47-3.09-20.59-5.85h0c-6.15-2.77-12.39-5.36-22-5.38h0c-6.7,0-12.49,1.81-18.84,4.17h0c-6.34,2.34-13.22,5.23-21.73,7h0l-1-9.67c8-1.64,14.47-4.37,21-6.78h0c6.49-2.4,13-4.49,20.62-4.49h0c10.52,0,17.87,3,24.13,5.85h0c6.3,2.86,11.38,5.38,18.44,5.38h0c8.9,0,12.9-2.4,18-5.12h0c5-2.78,11-5.85,21.5-5.79h0c7.74,0,14.69,2.3,21.77,4.89h0c7.09,2.6,14.34,5.49,22.9,7.06h0l-.91,9.69c-9.15-1.69-16.78-4.75-23.75-7.3Z" transform="translate(-91.69 -41.47)"/></g></svg>